<svg width="200" height="200" viewBox="0 0 200 200" fill="none" xmlns="http://www.w3.org/2000/svg">
    <g opacity=".1" filter="url(#ime2vf6g0a)" fill-rule="evenodd" clip-rule="evenodd">
        <path d="M171.249 111.376c-7.459 4.787-16.332 7.563-25.854 7.563-26.473 0-47.934-21.46-47.934-47.934 0-16.939 8.786-31.825 22.049-40.351A72.132 72.132 0 0 0 100.066 28C60.265 28 28 60.265 28 100.066s32.265 72.066 72.066 72.066c35.953 0 65.756-26.328 71.183-60.756z" fill="url(#rzh092wrgb)"/>
        <path d="M171.249 111.376c-7.459 4.787-16.332 7.563-25.854 7.563-26.473 0-47.934-21.46-47.934-47.934 0-16.939 8.786-31.825 22.049-40.351A72.132 72.132 0 0 0 100.066 28C60.265 28 28 60.265 28 100.066s32.265 72.066 72.066 72.066c35.953 0 65.756-26.328 71.183-60.756z" fill="#83B4FF" fill-opacity=".6"/>
    </g>
    <mask id="zqfsof12zf" fill="#fff">
        <path fill-rule="evenodd" clip-rule="evenodd" d="M158.316 123.682A51.871 51.871 0 0 1 140 127c-28.719 0-52-23.281-52-52 0-14.453 5.897-27.53 15.416-36.954A63.142 63.142 0 0 0 101 38c-34.242 0-62 27.758-62 62 0 34.242 27.758 62 62 62 25.854 0 48.012-15.825 57.316-38.318z"/>
    </mask>
    <g filter="url(#6y2o1284yc)" fill-rule="evenodd" clip-rule="evenodd">
        <path d="M158.316 123.682A51.871 51.871 0 0 1 140 127c-28.719 0-52-23.281-52-52 0-14.453 5.897-27.53 15.416-36.954A63.142 63.142 0 0 0 101 38c-34.242 0-62 27.758-62 62 0 34.242 27.758 62 62 62 25.854 0 48.012-15.825 57.316-38.318z" fill="#D9D9D9"/>
        <path d="M158.316 123.682A51.871 51.871 0 0 1 140 127c-28.719 0-52-23.281-52-52 0-14.453 5.897-27.53 15.416-36.954A63.142 63.142 0 0 0 101 38c-34.242 0-62 27.758-62 62 0 34.242 27.758 62 62 62 25.854 0 48.012-15.825 57.316-38.318z" fill="url(#omjhjw2r4d)"/>
    </g>
    <path d="m158.316 123.682.924.383a.999.999 0 0 0-1.276-1.318l.352.935zm-54.9-85.636.703.71a1.001 1.001 0 0 0-.665-1.71l-.038 1zm54.548 84.701A50.9 50.9 0 0 1 140 126v2a52.87 52.87 0 0 0 18.669-3.382l-.705-1.871zM140 126c-28.167 0-51-22.833-51-51h-2c0 29.271 23.729 53 53 53v-2zM89 75c0-14.176 5.782-26.999 15.119-36.243l-1.407-1.421C93.012 46.94 87 60.269 87 75h2zm12-36c.796 0 1.589.015 2.377.045l.077-1.998A64.066 64.066 0 0 0 101 37v2zm-61 61c0-33.69 27.31-61 61-61v-2c-34.794 0-63 28.206-63 63h2zm61 61c-33.69 0-61-27.311-61-61h-2c0 34.794 28.206 63 63 63v-2zm56.392-37.7C148.238 145.432 126.436 161 101 161v2c26.273 0 48.787-16.082 58.24-38.935l-1.848-.765z" fill="url(#2urxjdri2e)" mask="url(#zqfsof12zf)"/>
    <g opacity=".6" filter="url(#vffn3ajcog)">
        <circle cx="73.851" cy="128.336" r="8.672" fill="url(#o5mp2l48ah)"/>
    </g>
    <g filter="url(#53mqhdlkfi)">
        <circle cx="62.5" cy="75.5" r="6.5" fill="url(#jxxz1gi3dj)"/>
    </g>
    <circle cx="87.883" cy="145.422" r="4.336" fill="url(#gfdm093ggk)"/>
    <defs>
        <linearGradient id="rzh092wrgb" x1="82.18" y1="38.57" x2="99.624" y2="172.132" gradientUnits="userSpaceOnUse">
            <stop stop-color="#C4D4FF"/>
            <stop offset="1" stop-color="#8B99BF" stop-opacity=".2"/>
        </linearGradient>
        <linearGradient id="omjhjw2r4d" x1="61.949" y1="142.987" x2="148.357" y2="72.101" gradientUnits="userSpaceOnUse">
            <stop stop-color="#475D93"/>
            <stop offset="1" stop-color="#A0B5EB"/>
        </linearGradient>
        <linearGradient id="2urxjdri2e" x1="135.001" y1="47" x2="56.502" y2="185.001" gradientUnits="userSpaceOnUse">
            <stop offset=".364" stop-color="#CEDAF7"/>
            <stop offset="1" stop-color="#3D4454"/>
        </linearGradient>
        <linearGradient id="o5mp2l48ah" x1="85.086" y1="133.492" x2="72.086" y2="147.492" gradientUnits="userSpaceOnUse">
            <stop stop-color="#53689E"/>
            <stop offset="1" stop-color="#6478AF"/>
        </linearGradient>
        <linearGradient id="jxxz1gi3dj" x1="62.5" y1="69" x2="62.5" y2="82" gradientUnits="userSpaceOnUse">
            <stop stop-color="#718ACD"/>
            <stop offset="1" stop-color="#5970AA"/>
        </linearGradient>
        <linearGradient id="gfdm093ggk" x1="93.5" y1="148" x2="87" y2="155" gradientUnits="userSpaceOnUse">
            <stop stop-color="#53689E"/>
            <stop offset="1" stop-color="#6478AF"/>
        </linearGradient>
        <filter id="ime2vf6g0a" x="20" y="20" width="159.25" height="160.133" filterUnits="userSpaceOnUse" color-interpolation-filters="sRGB">
            <feFlood flood-opacity="0" result="BackgroundImageFix"/>
            <feBlend in="SourceGraphic" in2="BackgroundImageFix" result="shape"/>
            <feGaussianBlur stdDeviation="4" result="effect1_foregroundBlur_15344_690338"/>
        </filter>
        <filter id="6y2o1284yc" x="39" y="38" width="119.316" height="126.909" filterUnits="userSpaceOnUse" color-interpolation-filters="sRGB">
            <feFlood flood-opacity="0" result="BackgroundImageFix"/>
            <feBlend in="SourceGraphic" in2="BackgroundImageFix" result="shape"/>
            <feColorMatrix in="SourceAlpha" values="0 0 0 0 0 0 0 0 0 0 0 0 0 0 0 0 0 0 127 0" result="hardAlpha"/>
            <feOffset dy="2.909"/>
            <feGaussianBlur stdDeviation="5.237"/>
            <feComposite in2="hardAlpha" operator="arithmetic" k2="-1" k3="1"/>
            <feColorMatrix values="0 0 0 0 0.835294 0 0 0 0 0.862745 0 0 0 0 0.929412 0 0 0 0.9 0"/>
            <feBlend in2="shape" result="effect1_innerShadow_15344_690338"/>
        </filter>
        <filter id="vffn3ajcog" x="65.18" y="119.664" width="18.344" height="17.344" filterUnits="userSpaceOnUse" color-interpolation-filters="sRGB">
            <feFlood flood-opacity="0" result="BackgroundImageFix"/>
            <feBlend in="SourceGraphic" in2="BackgroundImageFix" result="shape"/>
            <feColorMatrix in="SourceAlpha" values="0 0 0 0 0 0 0 0 0 0 0 0 0 0 0 0 0 0 127 0" result="hardAlpha"/>
            <feOffset dx="1"/>
            <feGaussianBlur stdDeviation="2"/>
            <feComposite in2="hardAlpha" operator="arithmetic" k2="-1" k3="1"/>
            <feColorMatrix values="0 0 0 0 0.25006 0 0 0 0 0.307244 0 0 0 0 0.445687 0 0 0 0.5 0"/>
            <feBlend in2="shape" result="effect1_innerShadow_15344_690338"/>
        </filter>
        <filter id="53mqhdlkfi" x="56" y="69" width="15" height="15" filterUnits="userSpaceOnUse" color-interpolation-filters="sRGB">
            <feFlood flood-opacity="0" result="BackgroundImageFix"/>
            <feBlend in="SourceGraphic" in2="BackgroundImageFix" result="shape"/>
            <feColorMatrix in="SourceAlpha" values="0 0 0 0 0 0 0 0 0 0 0 0 0 0 0 0 0 0 127 0" result="hardAlpha"/>
            <feOffset dx="2" dy="2"/>
            <feGaussianBlur stdDeviation="2"/>
            <feComposite in2="hardAlpha" operator="arithmetic" k2="-1" k3="1"/>
            <feColorMatrix values="0 0 0 0 0.385982 0 0 0 0 0.462276 0 0 0 0 0.646989 0 0 0 0.5 0"/>
            <feBlend in2="shape" result="effect1_innerShadow_15344_690338"/>
        </filter>
    </defs>
</svg>
