<svg width="200" height="200" viewBox="0 0 200 200" fill="none" xmlns="http://www.w3.org/2000/svg">
    <g opacity=".1" filter="url(#cvuv90k58a)" fill-rule="evenodd" clip-rule="evenodd">
        <path d="M181.249 111.376c-7.459 4.787-16.332 7.563-25.854 7.563-26.473 0-47.934-21.46-47.934-47.934 0-16.939 8.786-31.825 22.049-40.351A72.132 72.132 0 0 0 110.066 28C70.265 28 38 60.265 38 100.066s32.265 72.066 72.066 72.066c35.953 0 65.756-26.328 71.183-60.756z" fill="url(#s0oz2oqidb)"/>
        <path d="M181.249 111.376c-7.459 4.787-16.332 7.563-25.854 7.563-26.473 0-47.934-21.46-47.934-47.934 0-16.939 8.786-31.825 22.049-40.351A72.132 72.132 0 0 0 110.066 28C70.265 28 38 60.265 38 100.066s32.265 72.066 72.066 72.066c35.953 0 65.756-26.328 71.183-60.756z" fill="#83B4FF" fill-opacity=".6"/>
    </g>
    <mask id="mxz9y94lwf" fill="#fff">
        <path fill-rule="evenodd" clip-rule="evenodd" d="M168.316 123.682A51.871 51.871 0 0 1 150 127c-28.719 0-52-23.281-52-52 0-14.453 5.897-27.53 15.416-36.954A63.142 63.142 0 0 0 111 38c-34.242 0-62 27.758-62 62 0 34.242 27.758 62 62 62 25.854 0 48.012-15.825 57.316-38.318z"/>
    </mask>
    <g filter="url(#tbn64gbd9c)" fill-rule="evenodd" clip-rule="evenodd">
        <path d="M168.316 123.682A51.871 51.871 0 0 1 150 127c-28.719 0-52-23.281-52-52 0-14.453 5.897-27.53 15.416-36.954A63.142 63.142 0 0 0 111 38c-34.242 0-62 27.758-62 62 0 34.242 27.758 62 62 62 25.854 0 48.012-15.825 57.316-38.318z" fill="#D9D9D9"/>
        <path d="M168.316 123.682A51.871 51.871 0 0 1 150 127c-28.719 0-52-23.281-52-52 0-14.453 5.897-27.53 15.416-36.954A63.142 63.142 0 0 0 111 38c-34.242 0-62 27.758-62 62 0 34.242 27.758 62 62 62 25.854 0 48.012-15.825 57.316-38.318z" fill="url(#wpcn60hftd)"/>
    </g>
    <path d="m168.316 123.682.924.383a.999.999 0 0 0-1.276-1.318l.352.935zm-54.9-85.636.703.71a1.001 1.001 0 0 0-.665-1.71l-.038 1zm54.548 84.701A50.9 50.9 0 0 1 150 126v2a52.87 52.87 0 0 0 18.669-3.382l-.705-1.871zM150 126c-28.167 0-51-22.833-51-51h-2c0 29.271 23.729 53 53 53v-2zM99 75c0-14.176 5.782-26.999 15.119-36.243l-1.407-1.421C103.011 46.94 97 60.269 97 75h2zm12-36c.796 0 1.589.015 2.377.045l.077-1.998A64.066 64.066 0 0 0 111 37v2zm-61 61c0-33.69 27.31-61 61-61v-2c-34.794 0-63 28.206-63 63h2zm61 61c-33.69 0-61-27.311-61-61h-2c0 34.794 28.206 63 63 63v-2zm56.392-37.7C158.238 145.432 136.436 161 111 161v2c26.273 0 48.787-16.082 58.24-38.935l-1.848-.765z" fill="url(#qknhvbs0ge)" mask="url(#mxz9y94lwf)"/>
    <g opacity=".6" filter="url(#6x5dmiivjg)">
        <circle cx="83.851" cy="128.336" r="8.672" fill="url(#ljmfk4jfjh)"/>
    </g>
    <g filter="url(#uwarki2s1i)">
        <circle cx="72.5" cy="75.5" r="6.5" fill="url(#bg0pocv2ej)"/>
    </g>
    <circle cx="97.883" cy="145.422" r="4.336" fill="url(#qn551sf42k)"/>
    <g filter="url(#1il6knmt1l)">
        <path fill-rule="evenodd" clip-rule="evenodd" d="M97.602 178h-4.015l-.165.001h-6.227V178H37.75C29.052 178 22 170.948 22 162.25c0-6.477 3.91-12.041 9.498-14.46a31.481 31.481 0 0 1-.053-1.815C31.445 128.868 45.313 115 62.42 115c13.897 0 25.656 9.151 29.58 21.755a21.035 21.035 0 0 1 5.602-.755c11.598 0 21 9.402 21 21s-9.402 21-21 21z" fill="url(#uvrnzkkc9m)"/>
    </g>
    <defs>
        <linearGradient id="s0oz2oqidb" x1="92.18" y1="38.57" x2="109.625" y2="172.132" gradientUnits="userSpaceOnUse">
            <stop stop-color="#C4D4FF"/>
            <stop offset="1" stop-color="#8B99BF" stop-opacity=".2"/>
        </linearGradient>
        <linearGradient id="wpcn60hftd" x1="71.949" y1="142.987" x2="158.357" y2="72.101" gradientUnits="userSpaceOnUse">
            <stop stop-color="#475D93"/>
            <stop offset="1" stop-color="#A0B5EB"/>
        </linearGradient>
        <linearGradient id="qknhvbs0ge" x1="145.001" y1="47" x2="66.502" y2="185.001" gradientUnits="userSpaceOnUse">
            <stop offset=".364" stop-color="#CEDAF7"/>
            <stop offset="1" stop-color="#3D4454"/>
        </linearGradient>
        <linearGradient id="ljmfk4jfjh" x1="95.086" y1="133.492" x2="82.086" y2="147.492" gradientUnits="userSpaceOnUse">
            <stop stop-color="#53689E"/>
            <stop offset="1" stop-color="#6478AF"/>
        </linearGradient>
        <linearGradient id="bg0pocv2ej" x1="72.5" y1="69" x2="72.5" y2="82" gradientUnits="userSpaceOnUse">
            <stop stop-color="#718ACD"/>
            <stop offset="1" stop-color="#5970AA"/>
        </linearGradient>
        <linearGradient id="qn551sf42k" x1="103.5" y1="148" x2="97" y2="155" gradientUnits="userSpaceOnUse">
            <stop stop-color="#53689E"/>
            <stop offset="1" stop-color="#6478AF"/>
        </linearGradient>
        <linearGradient id="uvrnzkkc9m" x1="67.808" y1="137.225" x2="67.808" y2="178.001" gradientUnits="userSpaceOnUse">
            <stop stop-color="#D1D1D1"/>
            <stop offset="1" stop-color="#BABABA"/>
        </linearGradient>
        <filter id="cvuv90k58a" x="30" y="20" width="159.25" height="160.133" filterUnits="userSpaceOnUse" color-interpolation-filters="sRGB">
            <feFlood flood-opacity="0" result="BackgroundImageFix"/>
            <feBlend in="SourceGraphic" in2="BackgroundImageFix" result="shape"/>
            <feGaussianBlur stdDeviation="4" result="effect1_foregroundBlur_15344_690808"/>
        </filter>
        <filter id="tbn64gbd9c" x="49" y="38" width="119.316" height="126.909" filterUnits="userSpaceOnUse" color-interpolation-filters="sRGB">
            <feFlood flood-opacity="0" result="BackgroundImageFix"/>
            <feBlend in="SourceGraphic" in2="BackgroundImageFix" result="shape"/>
            <feColorMatrix in="SourceAlpha" values="0 0 0 0 0 0 0 0 0 0 0 0 0 0 0 0 0 0 127 0" result="hardAlpha"/>
            <feOffset dy="2.909"/>
            <feGaussianBlur stdDeviation="5.237"/>
            <feComposite in2="hardAlpha" operator="arithmetic" k2="-1" k3="1"/>
            <feColorMatrix values="0 0 0 0 0.835294 0 0 0 0 0.862745 0 0 0 0 0.929412 0 0 0 0.9 0"/>
            <feBlend in2="shape" result="effect1_innerShadow_15344_690808"/>
        </filter>
        <filter id="6x5dmiivjg" x="75.18" y="119.664" width="18.344" height="17.344" filterUnits="userSpaceOnUse" color-interpolation-filters="sRGB">
            <feFlood flood-opacity="0" result="BackgroundImageFix"/>
            <feBlend in="SourceGraphic" in2="BackgroundImageFix" result="shape"/>
            <feColorMatrix in="SourceAlpha" values="0 0 0 0 0 0 0 0 0 0 0 0 0 0 0 0 0 0 127 0" result="hardAlpha"/>
            <feOffset dx="1"/>
            <feGaussianBlur stdDeviation="2"/>
            <feComposite in2="hardAlpha" operator="arithmetic" k2="-1" k3="1"/>
            <feColorMatrix values="0 0 0 0 0.25006 0 0 0 0 0.307244 0 0 0 0 0.445687 0 0 0 0.5 0"/>
            <feBlend in2="shape" result="effect1_innerShadow_15344_690808"/>
        </filter>
        <filter id="uwarki2s1i" x="66" y="69" width="15" height="15" filterUnits="userSpaceOnUse" color-interpolation-filters="sRGB">
            <feFlood flood-opacity="0" result="BackgroundImageFix"/>
            <feBlend in="SourceGraphic" in2="BackgroundImageFix" result="shape"/>
            <feColorMatrix in="SourceAlpha" values="0 0 0 0 0 0 0 0 0 0 0 0 0 0 0 0 0 0 127 0" result="hardAlpha"/>
            <feOffset dx="2" dy="2"/>
            <feGaussianBlur stdDeviation="2"/>
            <feComposite in2="hardAlpha" operator="arithmetic" k2="-1" k3="1"/>
            <feColorMatrix values="0 0 0 0 0.385982 0 0 0 0 0.462276 0 0 0 0 0.646989 0 0 0 0.5 0"/>
            <feBlend in2="shape" result="effect1_innerShadow_15344_690808"/>
        </filter>
        <filter id="1il6knmt1l" x="14" y="111" width="112.602" height="79" filterUnits="userSpaceOnUse" color-interpolation-filters="sRGB">
            <feFlood flood-opacity="0" result="BackgroundImageFix"/>
            <feColorMatrix in="SourceAlpha" values="0 0 0 0 0 0 0 0 0 0 0 0 0 0 0 0 0 0 127 0" result="hardAlpha"/>
            <feOffset dy="4"/>
            <feGaussianBlur stdDeviation="4"/>
            <feComposite in2="hardAlpha" operator="out"/>
            <feColorMatrix values="0 0 0 0 0 0 0 0 0 0 0 0 0 0 0 0 0 0 0.02 0"/>
            <feBlend in2="BackgroundImageFix" result="effect1_dropShadow_15344_690808"/>
            <feBlend in="SourceGraphic" in2="effect1_dropShadow_15344_690808" result="shape"/>
        </filter>
    </defs>
</svg>
