<svg width="200" height="200" viewBox="0 0 200 200" fill="none" xmlns="http://www.w3.org/2000/svg">
    <path fill-rule="evenodd" clip-rule="evenodd" d="M41.281 81.52c0 .255.002.51.007.763C32.916 85.619 27 93.799 27 103.36c0 12.526 10.154 22.68 22.68 22.68h77.28V126h1.278c.552.027 1.107.04 1.665.04 18.789 0 34.02-15.231 34.02-34.02S148.692 58 129.903 58c-2.038 0-4.034.18-5.974.523C116.132 45.623 101.974 37 85.801 37c-24.587 0-44.52 19.932-44.52 44.52z" fill="url(#dyca4y9rza)"/>
    <path fill-rule="evenodd" clip-rule="evenodd" d="M115.451 145a1 1 0 0 0-1-1H40a1 1 0 0 0-1 1v6a1 1 0 0 0 1 1h74.451a1 1 0 0 0 1-1v-6zm28.767 0a1 1 0 0 0-1-1h-16.929a1 1 0 0 0-1 1v6a1 1 0 0 0 1 1h16.929a1 1 0 0 0 1-1v-6zm-87.96 20.133a1 1 0 0 1 1-1h16.929a1 1 0 0 1 1 1v6a1 1 0 0 1-1 1h-16.93a1 1 0 0 1-1-1v-6zm47.687-1h-17.93a1 1 0 0 0-1 1v6a1 1 0 0 0 1 1h45.691a1 1 0 0 0 1-1v-6a1 1 0 0 0-1-1h-27.761zm57.523 1a1 1 0 0 0-1-1h-16.929a1 1 0 0 0-1 1v6a1 1 0 0 0 1 1h16.929a1 1 0 0 0 1-1v-6zM39 185.266a1 1 0 0 1 1-1h16.93a1 1 0 0 1 1 1v6a1 1 0 0 1-1 1H40a1 1 0 0 1-1-1v-6zm47.695 0a1 1 0 0 0-1-1h-16.93a1 1 0 0 0-1 1v6a1 1 0 0 0 1 1h16.93a1 1 0 0 0 1-1v-6zm9.828 0a1 1 0 0 1 1-1h45.69a1 1 0 0 1 1 1v6a1 1 0 0 1-1 1h-45.69a1 1 0 0 1-1-1v-6z" fill="#C7C7C7"/>
    <defs>
        <linearGradient id="dyca4y9rza" x1="91.928" y1="68.411" x2="91.928" y2="126.039" gradientUnits="userSpaceOnUse">
            <stop stop-color="#D1D1D1"/>
            <stop offset="1" stop-color="#BABABA"/>
        </linearGradient>
    </defs>
</svg>
