<svg width="200" height="200" viewBox="0 0 200 200" fill="none" xmlns="http://www.w3.org/2000/svg">
    <g opacity=".3" filter="url(#dg4tqhi1ua)">
        <rect x="43" y="140" width="114" height="22" rx="11" fill="#517581"/>
    </g>
    <path fill-rule="evenodd" clip-rule="evenodd" d="M165.865 96.33c0 15.832-12.834 28.666-28.665 28.667V125H55.5c-11.874 0-21.5-9.626-21.5-21.5 0-8.843 5.34-16.44 12.97-19.741a42.934 42.934 0 0 1-.072-2.476C46.898 57.931 65.83 39 89.182 39c18.968 0 35.018 12.49 40.377 29.693a28.698 28.698 0 0 1 7.639-1.029c15.832 0 28.667 12.835 28.667 28.667z" fill="url(#zojjov1gfb)"/>
    <g filter="url(#jv96jn3dyc)" stroke="#fff" stroke-width="6" stroke-linecap="square">
        <path d="M104.289 162.25v-23.247M94.219 144.812l20.133 11.624M94.219 156.438l20.133-11.624"/>
    </g>
    <g filter="url(#8mdsr8tq1d)" stroke="#fff" stroke-width="6" stroke-linecap="square">
        <path d="M142.422 162.25v-23.247M132.352 144.812l20.132 11.624M132.352 156.438l20.132-11.624"/>
    </g>
    <path d="m52.61 143.031-5.608 15.405M76.219 143.031l-5.607 15.405" stroke="#14A2D4" stroke-width="8" stroke-linecap="square"/>
    <defs>
        <filter id="dg4tqhi1ua" x="15.165" y="112.165" width="169.67" height="77.67" filterUnits="userSpaceOnUse" color-interpolation-filters="sRGB">
            <feFlood flood-opacity="0" result="BackgroundImageFix"/>
            <feBlend in="SourceGraphic" in2="BackgroundImageFix" result="shape"/>
            <feGaussianBlur stdDeviation="13.918" result="effect1_foregroundBlur_15344_689798"/>
        </filter>
        <filter id="jv96jn3dyc" x="86.121" y="132" width="36.328" height="37.25" filterUnits="userSpaceOnUse" color-interpolation-filters="sRGB">
            <feFlood flood-opacity="0" result="BackgroundImageFix"/>
            <feColorMatrix in="SourceAlpha" values="0 0 0 0 0 0 0 0 0 0 0 0 0 0 0 0 0 0 127 0" result="hardAlpha"/>
            <feOffset/>
            <feGaussianBlur stdDeviation="2"/>
            <feComposite in2="hardAlpha" operator="out"/>
            <feColorMatrix values="0 0 0 0 0 0 0 0 0 0 0 0 0 0 0 0 0 0 0.12 0"/>
            <feBlend in2="BackgroundImageFix" result="effect1_dropShadow_15344_689798"/>
            <feBlend in="SourceGraphic" in2="effect1_dropShadow_15344_689798" result="shape"/>
        </filter>
        <filter id="8mdsr8tq1d" x="124.254" y="132" width="36.328" height="37.25" filterUnits="userSpaceOnUse" color-interpolation-filters="sRGB">
            <feFlood flood-opacity="0" result="BackgroundImageFix"/>
            <feColorMatrix in="SourceAlpha" values="0 0 0 0 0 0 0 0 0 0 0 0 0 0 0 0 0 0 127 0" result="hardAlpha"/>
            <feOffset/>
            <feGaussianBlur stdDeviation="2"/>
            <feComposite in2="hardAlpha" operator="out"/>
            <feColorMatrix values="0 0 0 0 0 0 0 0 0 0 0 0 0 0 0 0 0 0 0.12 0"/>
            <feBlend in2="BackgroundImageFix" result="effect1_dropShadow_15344_689798"/>
            <feBlend in="SourceGraphic" in2="effect1_dropShadow_15344_689798" result="shape"/>
        </filter>
        <linearGradient id="zojjov1gfb" x1="96.53" y1="69.338" x2="96.53" y2="124.999" gradientUnits="userSpaceOnUse">
            <stop stop-color="#D1D1D1"/>
            <stop offset="1" stop-color="#BABABA"/>
        </linearGradient>
    </defs>
</svg>
