<svg width="200" height="202" viewBox="0 0 200 202" fill="none" xmlns="http://www.w3.org/2000/svg">
    <g opacity=".2" filter="url(#gbm4idjgga)">
        <rect x="35" y="156" width="86" height="16" rx="8" fill="#517581"/>
    </g>
    <g filter="url(#kttfqpajfb)" stroke="#fff" stroke-width="3.658" stroke-linecap="square">
        <path d="M47.397 156v14.782M53.803 167.086 41 159.695M53.803 159.695 41 167.086"/>
    </g>
    <g filter="url(#dv4rgtxfcc)" stroke="#fff" stroke-width="3.658" stroke-linecap="square">
        <path d="M78.482 156v14.782M84.889 167.086l-12.802-7.391M84.889 159.695l-12.802 7.391"/>
    </g>
    <g filter="url(#wtlbsil4hd)" stroke="#fff" stroke-width="3.658" stroke-linecap="square">
        <path d="M109.592 156v14.782M115.998 167.086l-12.802-7.391M115.998 159.695l-12.802 7.391"/>
    </g>
    <g opacity=".2" filter="url(#f6gfqv195e)">
        <path d="M163 79c0 28.167-22.833 51-51 51-28.166 0-51-22.833-51-51 0-28.166 22.834-51 51-51 28.167 0 51 22.834 51 51z" fill="#FFA91E"/>
    </g>
    <path d="M152.446 78.903c0 22.391-18.152 40.543-40.543 40.543-22.392 0-40.544-18.152-40.544-40.543 0-22.392 18.152-40.544 40.544-40.544 22.391 0 40.543 18.152 40.543 40.544z" fill="url(#ox6xaibr1f)"/>
    <g opacity=".1" filter="url(#b2rs7mc9sg)">
        <rect x="71.203" y="40.602" width="81.392" height="75.806" rx="37.903" fill="#FFEF9A"/>
    </g>
    <g filter="url(#mksn5spmrh)">
        <path fill-rule="evenodd" clip-rule="evenodd" d="M39.75 139.999V140h71.249v-.001H111c13.806 0 24.999-11.193 24.999-24.999 0-13.807-11.193-25-24.999-25-2.31 0-4.547.313-6.67.9C99.659 75.894 85.66 65 69.117 65c-20.366 0-36.875 16.51-36.875 36.874 0 .726.021 1.447.063 2.162C25.652 106.917 21 113.54 21 121.25c0 10.355 8.395 18.749 18.75 18.749z" fill="url(#zi1m62ou0i)"/>
    </g>
    <defs>
        <filter id="gbm4idjgga" x="7.165" y="128.165" width="141.67" height="71.67" filterUnits="userSpaceOnUse" color-interpolation-filters="sRGB">
            <feFlood flood-opacity="0" result="BackgroundImageFix"/>
            <feBlend in="SourceGraphic" in2="BackgroundImageFix" result="shape"/>
            <feGaussianBlur stdDeviation="13.918" result="effect1_foregroundBlur_15344_689954"/>
        </filter>
        <filter id="kttfqpajfb" x="30.502" y="146.172" width="33.799" height="34.438" filterUnits="userSpaceOnUse" color-interpolation-filters="sRGB">
            <feFlood flood-opacity="0" result="BackgroundImageFix"/>
            <feColorMatrix in="SourceAlpha" values="0 0 0 0 0 0 0 0 0 0 0 0 0 0 0 0 0 0 127 0" result="hardAlpha"/>
            <feOffset/>
            <feGaussianBlur stdDeviation="4"/>
            <feComposite in2="hardAlpha" operator="out"/>
            <feColorMatrix values="0 0 0 0 0 0 0 0 0 0 0 0 0 0 0 0 0 0 0.14 0"/>
            <feBlend in2="BackgroundImageFix" result="effect1_dropShadow_15344_689954"/>
            <feBlend in="SourceGraphic" in2="effect1_dropShadow_15344_689954" result="shape"/>
        </filter>
        <filter id="dv4rgtxfcc" x="61.588" y="146.172" width="33.799" height="34.438" filterUnits="userSpaceOnUse" color-interpolation-filters="sRGB">
            <feFlood flood-opacity="0" result="BackgroundImageFix"/>
            <feColorMatrix in="SourceAlpha" values="0 0 0 0 0 0 0 0 0 0 0 0 0 0 0 0 0 0 127 0" result="hardAlpha"/>
            <feOffset/>
            <feGaussianBlur stdDeviation="4"/>
            <feComposite in2="hardAlpha" operator="out"/>
            <feColorMatrix values="0 0 0 0 0 0 0 0 0 0 0 0 0 0 0 0 0 0 0.14 0"/>
            <feBlend in2="BackgroundImageFix" result="effect1_dropShadow_15344_689954"/>
            <feBlend in="SourceGraphic" in2="effect1_dropShadow_15344_689954" result="shape"/>
        </filter>
        <filter id="wtlbsil4hd" x="92.697" y="146.172" width="33.799" height="34.438" filterUnits="userSpaceOnUse" color-interpolation-filters="sRGB">
            <feFlood flood-opacity="0" result="BackgroundImageFix"/>
            <feColorMatrix in="SourceAlpha" values="0 0 0 0 0 0 0 0 0 0 0 0 0 0 0 0 0 0 127 0" result="hardAlpha"/>
            <feOffset/>
            <feGaussianBlur stdDeviation="4"/>
            <feComposite in2="hardAlpha" operator="out"/>
            <feColorMatrix values="0 0 0 0 0 0 0 0 0 0 0 0 0 0 0 0 0 0 0.14 0"/>
            <feBlend in2="BackgroundImageFix" result="effect1_dropShadow_15344_689954"/>
            <feBlend in="SourceGraphic" in2="effect1_dropShadow_15344_689954" result="shape"/>
        </filter>
        <filter id="f6gfqv195e" x="59.692" y="26.692" width="104.615" height="104.615" filterUnits="userSpaceOnUse" color-interpolation-filters="sRGB">
            <feFlood flood-opacity="0" result="BackgroundImageFix"/>
            <feBlend in="SourceGraphic" in2="BackgroundImageFix" result="shape"/>
            <feGaussianBlur stdDeviation=".654" result="effect1_foregroundBlur_15344_689954"/>
        </filter>
        <filter id="b2rs7mc9sg" x="31.305" y=".704" width="161.186" height="155.6" filterUnits="userSpaceOnUse" color-interpolation-filters="sRGB">
            <feFlood flood-opacity="0" result="BackgroundImageFix"/>
            <feBlend in="SourceGraphic" in2="BackgroundImageFix" result="shape"/>
            <feGaussianBlur stdDeviation="19.949" result="effect1_foregroundBlur_15344_689954"/>
        </filter>
        <filter id="mksn5spmrh" x="11" y="55" width="135" height="95" filterUnits="userSpaceOnUse" color-interpolation-filters="sRGB">
            <feFlood flood-opacity="0" result="BackgroundImageFix"/>
            <feColorMatrix in="SourceAlpha" values="0 0 0 0 0 0 0 0 0 0 0 0 0 0 0 0 0 0 127 0" result="hardAlpha"/>
            <feOffset/>
            <feGaussianBlur stdDeviation="5"/>
            <feComposite in2="hardAlpha" operator="out"/>
            <feColorMatrix values="0 0 0 0 0 0 0 0 0 0 0 0 0 0 0 0 0 0 0.1 0"/>
            <feBlend in2="BackgroundImageFix" result="effect1_dropShadow_15344_689954"/>
            <feBlend in="SourceGraphic" in2="effect1_dropShadow_15344_689954" result="shape"/>
        </filter>
        <linearGradient id="ox6xaibr1f" x1="105.744" y1="100.971" x2="139.103" y2="42.465" gradientUnits="userSpaceOnUse">
            <stop stop-color="#F3A42E"/>
            <stop offset="1" stop-color="#FFC640"/>
        </linearGradient>
        <linearGradient id="zi1m62ou0i" x1="75.532" y1="91.458" x2="75.532" y2="139.999" gradientUnits="userSpaceOnUse">
            <stop stop-color="#D1D1D1"/>
            <stop offset="1" stop-color="#BABABA"/>
        </linearGradient>
    </defs>
</svg>
