<svg width="200" height="202" viewBox="0 0 200 202" fill="none" xmlns="http://www.w3.org/2000/svg">
    <g opacity=".2" filter="url(#1bj5zo09la)">
        <path d="M163 79c0 28.167-22.833 51-51 51-28.166 0-51-22.833-51-51 0-28.166 22.834-51 51-51 28.167 0 51 22.834 51 51z" fill="#FFA91E"/>
    </g>
    <path d="M152.446 78.903c0 22.391-18.152 40.543-40.543 40.543-22.392 0-40.544-18.152-40.544-40.543 0-22.392 18.152-40.544 40.544-40.544 22.391 0 40.543 18.152 40.543 40.544z" fill="url(#gw2jsxbcjb)"/>
    <g opacity=".1" filter="url(#pscejix6gc)">
        <rect x="71.203" y="40.602" width="81.392" height="75.806" rx="37.903" fill="#FFEF9A"/>
    </g>
    <g opacity=".1" filter="url(#3pqn9aq3od)">
        <rect x="32" y="156" width="86" height="12.404" rx="6.202" fill="#517581"/>
    </g>
    <g filter="url(#uscolqfd5e)" stroke="#fff" stroke-width="3.763" stroke-linecap="square">
        <path d="M80.48 169.203v-15.207M73.894 157.797l13.17 7.603M73.894 165.398l13.17-7.603"/>
    </g>
    <g filter="url(#iff670dzqf)" stroke="#fff" stroke-width="3.763" stroke-linecap="square">
        <path d="M105.426 169.203v-15.207M98.84 157.797l13.169 7.603M98.84 165.398l13.169-7.603"/>
    </g>
    <path d="M46.668 156.641 43 166.718M62.113 156.641l-3.667 10.077" stroke="#14A2D4" stroke-width="5.268" stroke-linecap="square"/>
    <g filter="url(#zuxvja0cpg)">
        <path fill-rule="evenodd" clip-rule="evenodd" d="M39.75 139.999V140h71.249v-.001H111c13.806 0 24.999-11.193 24.999-24.999 0-13.807-11.193-25-24.999-25-2.31 0-4.547.313-6.67.9C99.659 75.894 85.66 65 69.117 65c-20.366 0-36.875 16.51-36.875 36.874 0 .726.021 1.447.063 2.162C25.652 106.917 21 113.54 21 121.25c0 10.355 8.395 18.749 18.75 18.749z" fill="url(#flcorceobh)"/>
    </g>
    <defs>
        <filter id="1bj5zo09la" x="59.692" y="26.692" width="104.615" height="104.615" filterUnits="userSpaceOnUse" color-interpolation-filters="sRGB">
            <feFlood flood-opacity="0" result="BackgroundImageFix"/>
            <feBlend in="SourceGraphic" in2="BackgroundImageFix" result="shape"/>
            <feGaussianBlur stdDeviation=".654" result="effect1_foregroundBlur_15344_690157"/>
        </filter>
        <filter id="pscejix6gc" x="31.305" y=".704" width="161.186" height="155.6" filterUnits="userSpaceOnUse" color-interpolation-filters="sRGB">
            <feFlood flood-opacity="0" result="BackgroundImageFix"/>
            <feBlend in="SourceGraphic" in2="BackgroundImageFix" result="shape"/>
            <feGaussianBlur stdDeviation="19.949" result="effect1_foregroundBlur_15344_690157"/>
        </filter>
        <filter id="3pqn9aq3od" x="4.165" y="128.165" width="141.67" height="68.077" filterUnits="userSpaceOnUse" color-interpolation-filters="sRGB">
            <feFlood flood-opacity="0" result="BackgroundImageFix"/>
            <feBlend in="SourceGraphic" in2="BackgroundImageFix" result="shape"/>
            <feGaussianBlur stdDeviation="13.918" result="effect1_foregroundBlur_15344_690157"/>
        </filter>
        <filter id="uscolqfd5e" x="63.324" y="144.117" width="34.31" height="34.969" filterUnits="userSpaceOnUse" color-interpolation-filters="sRGB">
            <feFlood flood-opacity="0" result="BackgroundImageFix"/>
            <feColorMatrix in="SourceAlpha" values="0 0 0 0 0 0 0 0 0 0 0 0 0 0 0 0 0 0 127 0" result="hardAlpha"/>
            <feOffset/>
            <feGaussianBlur stdDeviation="4"/>
            <feComposite in2="hardAlpha" operator="out"/>
            <feColorMatrix values="0 0 0 0 0 0 0 0 0 0 0 0 0 0 0 0 0 0 0.12 0"/>
            <feBlend in2="BackgroundImageFix" result="effect1_dropShadow_15344_690157"/>
            <feBlend in="SourceGraphic" in2="effect1_dropShadow_15344_690157" result="shape"/>
        </filter>
        <filter id="iff670dzqf" x="88.269" y="144.117" width="34.31" height="34.969" filterUnits="userSpaceOnUse" color-interpolation-filters="sRGB">
            <feFlood flood-opacity="0" result="BackgroundImageFix"/>
            <feColorMatrix in="SourceAlpha" values="0 0 0 0 0 0 0 0 0 0 0 0 0 0 0 0 0 0 127 0" result="hardAlpha"/>
            <feOffset/>
            <feGaussianBlur stdDeviation="4"/>
            <feComposite in2="hardAlpha" operator="out"/>
            <feColorMatrix values="0 0 0 0 0 0 0 0 0 0 0 0 0 0 0 0 0 0 0.12 0"/>
            <feBlend in2="BackgroundImageFix" result="effect1_dropShadow_15344_690157"/>
            <feBlend in="SourceGraphic" in2="effect1_dropShadow_15344_690157" result="shape"/>
        </filter>
        <filter id="zuxvja0cpg" x="11.476" y="60.238" width="134.047" height="94.047" filterUnits="userSpaceOnUse" color-interpolation-filters="sRGB">
            <feFlood flood-opacity="0" result="BackgroundImageFix"/>
            <feColorMatrix in="SourceAlpha" values="0 0 0 0 0 0 0 0 0 0 0 0 0 0 0 0 0 0 127 0" result="hardAlpha"/>
            <feOffset dy="4.762"/>
            <feGaussianBlur stdDeviation="4.762"/>
            <feComposite in2="hardAlpha" operator="out"/>
            <feColorMatrix values="0 0 0 0 0 0 0 0 0 0 0 0 0 0 0 0 0 0 0.02 0"/>
            <feBlend in2="BackgroundImageFix" result="effect1_dropShadow_15344_690157"/>
            <feBlend in="SourceGraphic" in2="effect1_dropShadow_15344_690157" result="shape"/>
        </filter>
        <linearGradient id="gw2jsxbcjb" x1="105.744" y1="100.971" x2="139.103" y2="42.465" gradientUnits="userSpaceOnUse">
            <stop stop-color="#F3A42E"/>
            <stop offset="1" stop-color="#FFC640"/>
        </linearGradient>
        <linearGradient id="flcorceobh" x1="75.532" y1="91.458" x2="75.532" y2="139.999" gradientUnits="userSpaceOnUse">
            <stop stop-color="#D1D1D1"/>
            <stop offset="1" stop-color="#BABABA"/>
        </linearGradient>
    </defs>
</svg>
