<svg width="200" height="202" viewBox="0 0 200 202" fill="none" xmlns="http://www.w3.org/2000/svg">
    <g opacity=".2" filter="url(#qo73y0iwsa)">
        <path d="M163 79c0 28.167-22.833 51-51 51-28.166 0-51-22.833-51-51 0-28.166 22.834-51 51-51 28.167 0 51 22.834 51 51z" fill="#FFA91E"/>
    </g>
    <path d="M152.446 78.903c0 22.391-18.152 40.543-40.543 40.543-22.392 0-40.544-18.152-40.544-40.543 0-22.392 18.152-40.544 40.544-40.544 22.391 0 40.543 18.152 40.543 40.544z" fill="url(#d0b2zy57db)"/>
    <g opacity=".1" filter="url(#edsue24c4c)">
        <rect x="71.203" y="40.602" width="81.392" height="75.806" rx="37.903" fill="#FFEF9A"/>
    </g>
    <g opacity=".3" filter="url(#tn49thcdzd)">
        <rect x="60" y="116" width="38" height="26" rx="13" fill="#F2B248"/>
    </g>
    <g filter="url(#dwi9681pqe)">
        <path fill-rule="evenodd" clip-rule="evenodd" d="M98.602 136h-4.015l-.165.001h-6.227V136H38.75C30.052 136 23 128.948 23 120.25c0-6.477 3.91-12.041 9.498-14.46a31.481 31.481 0 0 1-.053-1.815C32.445 86.868 46.313 73 63.42 73 77.317 73 89.076 82.15 93 94.755A21.023 21.023 0 0 1 98.602 94c11.598 0 21 9.402 21 21s-9.402 21-21 21z" fill="url(#4pcwvbi88f)"/>
    </g>
    <g filter="url(#9hx5snjnvg)">
        <path d="M91.525 119H70.25L61 144.258h16.65l-7.708 31.533L98 134.422H85.667L91.525 119z" fill="url(#5gbufl7huh)"/>
    </g>
    <defs>
        <filter id="qo73y0iwsa" x="59.692" y="26.692" width="104.615" height="104.615" filterUnits="userSpaceOnUse" color-interpolation-filters="sRGB">
            <feFlood flood-opacity="0" result="BackgroundImageFix"/>
            <feBlend in="SourceGraphic" in2="BackgroundImageFix" result="shape"/>
            <feGaussianBlur stdDeviation=".654" result="effect1_foregroundBlur_15344_689905"/>
        </filter>
        <filter id="edsue24c4c" x="31.305" y=".704" width="161.186" height="155.6" filterUnits="userSpaceOnUse" color-interpolation-filters="sRGB">
            <feFlood flood-opacity="0" result="BackgroundImageFix"/>
            <feBlend in="SourceGraphic" in2="BackgroundImageFix" result="shape"/>
            <feGaussianBlur stdDeviation="19.949" result="effect1_foregroundBlur_15344_689905"/>
        </filter>
        <filter id="tn49thcdzd" x="40" y="96" width="78" height="66" filterUnits="userSpaceOnUse" color-interpolation-filters="sRGB">
            <feFlood flood-opacity="0" result="BackgroundImageFix"/>
            <feBlend in="SourceGraphic" in2="BackgroundImageFix" result="shape"/>
            <feGaussianBlur stdDeviation="10" result="effect1_foregroundBlur_15344_689905"/>
        </filter>
        <filter id="dwi9681pqe" x="13" y="63" width="116.602" height="83" filterUnits="userSpaceOnUse" color-interpolation-filters="sRGB">
            <feFlood flood-opacity="0" result="BackgroundImageFix"/>
            <feColorMatrix in="SourceAlpha" values="0 0 0 0 0 0 0 0 0 0 0 0 0 0 0 0 0 0 127 0" result="hardAlpha"/>
            <feOffset/>
            <feGaussianBlur stdDeviation="5"/>
            <feComposite in2="hardAlpha" operator="out"/>
            <feColorMatrix values="0 0 0 0 0 0 0 0 0 0 0 0 0 0 0 0 0 0 0.1 0"/>
            <feBlend in2="BackgroundImageFix" result="effect1_dropShadow_15344_689905"/>
            <feBlend in="SourceGraphic" in2="effect1_dropShadow_15344_689905" result="shape"/>
        </filter>
        <filter id="9hx5snjnvg" x="53" y="109" width="53" height="72.789" filterUnits="userSpaceOnUse" color-interpolation-filters="sRGB">
            <feFlood flood-opacity="0" result="BackgroundImageFix"/>
            <feColorMatrix in="SourceAlpha" values="0 0 0 0 0 0 0 0 0 0 0 0 0 0 0 0 0 0 127 0" result="hardAlpha"/>
            <feOffset dy="-2"/>
            <feGaussianBlur stdDeviation="4"/>
            <feComposite in2="hardAlpha" operator="out"/>
            <feColorMatrix values="0 0 0 0 0 0 0 0 0 0 0 0 0 0 0 0 0 0 0.14 0"/>
            <feBlend in2="BackgroundImageFix" result="effect1_dropShadow_15344_689905"/>
            <feBlend in="SourceGraphic" in2="effect1_dropShadow_15344_689905" result="shape"/>
            <feColorMatrix in="SourceAlpha" values="0 0 0 0 0 0 0 0 0 0 0 0 0 0 0 0 0 0 127 0" result="hardAlpha"/>
            <feOffset dx="-.366"/>
            <feGaussianBlur stdDeviation=".824"/>
            <feComposite in2="hardAlpha" operator="arithmetic" k2="-1" k3="1"/>
            <feColorMatrix values="0 0 0 0 1 0 0 0 0 1 0 0 0 0 1 0 0 0 0.5 0"/>
            <feBlend in2="shape" result="effect2_innerShadow_15344_689905"/>
        </filter>
        <linearGradient id="d0b2zy57db" x1="105.744" y1="100.971" x2="139.103" y2="42.465" gradientUnits="userSpaceOnUse">
            <stop stop-color="#F3A42E"/>
            <stop offset="1" stop-color="#FFC640"/>
        </linearGradient>
        <linearGradient id="4pcwvbi88f" x1="71" y1="96.5" x2="68.808" y2="150" gradientUnits="userSpaceOnUse">
            <stop stop-color="#DBDBDB"/>
            <stop offset="1" stop-color="#BCBCBC"/>
        </linearGradient>
        <linearGradient id="5gbufl7huh" x1="74.927" y1="170.32" x2="111.751" y2="120.262" gradientUnits="userSpaceOnUse">
            <stop stop-color="#EFA535"/>
            <stop offset="1" stop-color="#FFF9A7"/>
        </linearGradient>
    </defs>
</svg>
