<svg width="200" height="200" viewBox="0 0 200 200" fill="none" xmlns="http://www.w3.org/2000/svg">
<g clip-path="url(#clip0_27_290)">
<g opacity="0.1" filter="url(#filter0_f_27_290)">
<path fill-rule="evenodd" clip-rule="evenodd" d="M172.569 110.306C164.857 115.258 155.881 117.884 146.716 117.869C120.242 117.869 98.781 96.408 98.781 69.934C98.781 52.996 107.567 38.109 120.83 29.584C114.5 27.8176 107.958 26.9246 101.386 26.93C61.585 26.93 29.32 59.195 29.32 98.995C29.32 138.796 61.585 171.061 101.386 171.061C137.339 171.061 167.142 144.734 172.569 110.306Z" fill="url(#paint0_linear_27_290)"/>
<path fill-rule="evenodd" clip-rule="evenodd" d="M172.569 110.306C164.857 115.258 155.881 117.884 146.716 117.869C120.242 117.869 98.781 96.408 98.781 69.934C98.781 52.996 107.567 38.109 120.83 29.584C114.5 27.8176 107.958 26.9246 101.386 26.93C61.585 26.93 29.32 59.195 29.32 98.995C29.32 138.796 61.585 171.061 101.386 171.061C137.339 171.061 167.142 144.734 172.569 110.306Z" fill="#83B4FF" fill-opacity="0.6"/>
</g>
<g filter="url(#filter1_i_27_290)">
<path fill-rule="evenodd" clip-rule="evenodd" d="M158.316 122.682C152.461 124.883 146.255 126.007 140 126C111.281 126 88 102.719 88 74C88 59.547 93.897 46.47 103.416 37.046C102.611 37.0153 101.806 36.9999 101 37C66.758 37 39 64.758 39 99C39 133.242 66.758 161 101 161C126.854 161 149.012 145.175 158.316 122.682Z" fill="#D9D9D9"/>
<path fill-rule="evenodd" clip-rule="evenodd" d="M158.316 122.682C152.461 124.883 146.255 126.007 140 126C111.281 126 88 102.719 88 74C88 59.547 93.897 46.47 103.416 37.046C102.611 37.0153 101.806 36.9999 101 37C66.758 37 39 64.758 39 99C39 133.242 66.758 161 101 161C126.854 161 149.012 145.175 158.316 122.682Z" fill="url(#paint1_linear_27_290)"/>
</g>
<g opacity="0.6" filter="url(#filter2_i_27_290)">
<path d="M73.851 136.008C78.6404 136.008 82.523 132.125 82.523 127.336C82.523 122.547 78.6404 118.664 73.851 118.664C69.0616 118.664 65.179 122.547 65.179 127.336C65.179 132.125 69.0616 136.008 73.851 136.008Z" fill="url(#paint2_linear_27_290)"/>
</g>
<g filter="url(#filter3_i_27_290)">
<path d="M62.5 81C66.0899 81 69 78.0899 69 74.5C69 70.9101 66.0899 68 62.5 68C58.9101 68 56 70.9101 56 74.5C56 78.0899 58.9101 81 62.5 81Z" fill="url(#paint3_linear_27_290)"/>
</g>
<path d="M87.883 148.758C90.2777 148.758 92.219 146.817 92.219 144.422C92.219 142.027 90.2777 140.086 87.883 140.086C85.4883 140.086 83.547 142.027 83.547 144.422C83.547 146.817 85.4883 148.758 87.883 148.758Z" fill="#455681"/>
</g>
<defs>
<filter id="filter0_f_27_290" x="21.32" y="18.9299" width="159.249" height="160.131" filterUnits="userSpaceOnUse" color-interpolation-filters="sRGB">
<feFlood flood-opacity="0" result="BackgroundImageFix"/>
<feBlend mode="normal" in="SourceGraphic" in2="BackgroundImageFix" result="shape"/>
<feGaussianBlur stdDeviation="4" result="effect1_foregroundBlur_27_290"/>
</filter>
<filter id="filter1_i_27_290" x="39" y="37" width="119.316" height="126.909" filterUnits="userSpaceOnUse" color-interpolation-filters="sRGB">
<feFlood flood-opacity="0" result="BackgroundImageFix"/>
<feBlend mode="normal" in="SourceGraphic" in2="BackgroundImageFix" result="shape"/>
<feColorMatrix in="SourceAlpha" type="matrix" values="0 0 0 0 0 0 0 0 0 0 0 0 0 0 0 0 0 0 127 0" result="hardAlpha"/>
<feOffset dy="2.909"/>
<feGaussianBlur stdDeviation="5.237"/>
<feComposite in2="hardAlpha" operator="arithmetic" k2="-1" k3="1"/>
<feColorMatrix type="matrix" values="0 0 0 0 0.835294 0 0 0 0 0.862745 0 0 0 0 0.929412 0 0 0 0.9 0"/>
<feBlend mode="normal" in2="shape" result="effect1_innerShadow_27_290"/>
</filter>
<filter id="filter2_i_27_290" x="65.179" y="118.664" width="18.344" height="17.344" filterUnits="userSpaceOnUse" color-interpolation-filters="sRGB">
<feFlood flood-opacity="0" result="BackgroundImageFix"/>
<feBlend mode="normal" in="SourceGraphic" in2="BackgroundImageFix" result="shape"/>
<feColorMatrix in="SourceAlpha" type="matrix" values="0 0 0 0 0 0 0 0 0 0 0 0 0 0 0 0 0 0 127 0" result="hardAlpha"/>
<feOffset dx="1"/>
<feGaussianBlur stdDeviation="2"/>
<feComposite in2="hardAlpha" operator="arithmetic" k2="-1" k3="1"/>
<feColorMatrix type="matrix" values="0 0 0 0 0.25006 0 0 0 0 0.307244 0 0 0 0 0.445687 0 0 0 1 0"/>
<feBlend mode="normal" in2="shape" result="effect1_innerShadow_27_290"/>
</filter>
<filter id="filter3_i_27_290" x="56" y="68" width="15" height="15" filterUnits="userSpaceOnUse" color-interpolation-filters="sRGB">
<feFlood flood-opacity="0" result="BackgroundImageFix"/>
<feBlend mode="normal" in="SourceGraphic" in2="BackgroundImageFix" result="shape"/>
<feColorMatrix in="SourceAlpha" type="matrix" values="0 0 0 0 0 0 0 0 0 0 0 0 0 0 0 0 0 0 127 0" result="hardAlpha"/>
<feOffset dx="2" dy="2"/>
<feGaussianBlur stdDeviation="2"/>
<feComposite in2="hardAlpha" operator="arithmetic" k2="-1" k3="1"/>
<feColorMatrix type="matrix" values="0 0 0 0 0.354445 0 0 0 0 0.424695 0 0 0 0 0.594775 0 0 0 1 0"/>
<feBlend mode="normal" in2="shape" result="effect1_innerShadow_27_290"/>
</filter>
<linearGradient id="paint0_linear_27_290" x1="83.5" y1="37.5" x2="100.945" y2="171.061" gradientUnits="userSpaceOnUse">
<stop stop-color="#C4D4FF"/>
<stop offset="1" stop-color="#8B99BF" stop-opacity="0.2"/>
</linearGradient>
<linearGradient id="paint1_linear_27_290" x1="61.949" y1="141.987" x2="148.357" y2="71.101" gradientUnits="userSpaceOnUse">
<stop stop-color="#3A4A75"/>
<stop offset="1" stop-color="#A0B5EB"/>
</linearGradient>
<linearGradient id="paint2_linear_27_290" x1="79.5" y1="120.5" x2="73.851" y2="136.007" gradientUnits="userSpaceOnUse">
<stop stop-color="#4B5A83"/>
<stop offset="1" stop-color="#3E4F79"/>
</linearGradient>
<linearGradient id="paint3_linear_27_290" x1="62.5" y1="68" x2="62.5" y2="81" gradientUnits="userSpaceOnUse">
<stop stop-color="#65759F"/>
<stop offset="1" stop-color="#506497"/>
</linearGradient>
<clipPath id="clip0_27_290">
<rect width="200" height="200" fill="white"/>
</clipPath>
</defs>
</svg>
