<svg width="200" height="200" viewBox="0 0 200 200" fill="none" xmlns="http://www.w3.org/2000/svg">
<g clip-path="url(#clip0_27_290)">
<g opacity="0.1" filter="url(#filter0_f_27_290)">
<path fill-rule="evenodd" clip-rule="evenodd" d="M182.569 110.306C174.857 115.258 165.881 117.884 156.716 117.869C130.242 117.869 108.781 96.408 108.781 69.934C108.781 52.996 117.567 38.109 130.83 29.584C124.5 27.8176 117.958 26.9246 111.386 26.93C71.585 26.93 39.32 59.195 39.32 98.995C39.32 138.796 71.585 171.061 111.386 171.061C147.339 171.061 177.142 144.734 182.569 110.306Z" fill="url(#paint0_linear_27_290)"/>
<path fill-rule="evenodd" clip-rule="evenodd" d="M182.569 110.306C174.857 115.258 165.881 117.884 156.716 117.869C130.242 117.869 108.781 96.408 108.781 69.934C108.781 52.996 117.567 38.109 130.83 29.584C124.5 27.8176 117.958 26.9246 111.386 26.93C71.585 26.93 39.32 59.195 39.32 98.995C39.32 138.796 71.585 171.061 111.386 171.061C147.339 171.061 177.142 144.734 182.569 110.306Z" fill="#83B4FF" fill-opacity="0.6"/>
</g>
<g filter="url(#filter1_i_27_290)">
<path fill-rule="evenodd" clip-rule="evenodd" d="M168.316 122.682C162.461 124.883 156.255 126.007 150 126C121.281 126 98 102.719 98 74C98 59.547 103.897 46.47 113.416 37.046C112.611 37.0153 111.806 36.9999 111 37C76.758 37 49 64.758 49 99C49 133.242 76.758 161 111 161C136.854 161 159.012 145.175 168.316 122.682Z" fill="#D9D9D9"/>
<path fill-rule="evenodd" clip-rule="evenodd" d="M168.316 122.682C162.461 124.883 156.255 126.007 150 126C121.281 126 98 102.719 98 74C98 59.547 103.897 46.47 113.416 37.046C112.611 37.0153 111.806 36.9999 111 37C76.758 37 49 64.758 49 99C49 133.242 76.758 161 111 161C136.854 161 159.012 145.175 168.316 122.682Z" fill="url(#paint1_linear_27_290)"/>
</g>
<g opacity="0.6" filter="url(#filter2_i_27_290)">
<path d="M83.851 136.008C88.6404 136.008 92.523 132.125 92.523 127.336C92.523 122.547 88.6404 118.664 83.851 118.664C79.0616 118.664 75.179 122.547 75.179 127.336C75.179 132.125 79.0616 136.008 83.851 136.008Z" fill="url(#paint2_linear_27_290)"/>
</g>
<g filter="url(#filter3_i_27_290)">
<path d="M72.5 81C76.0899 81 79 78.0899 79 74.5C79 70.9101 76.0899 68 72.5 68C68.9101 68 66 70.9101 66 74.5C66 78.0899 68.9101 81 72.5 81Z" fill="url(#paint3_linear_27_290)"/>
</g>
<path d="M97.883 148.758C100.278 148.758 102.219 146.817 102.219 144.422C102.219 142.027 100.278 140.086 97.883 140.086C95.4883 140.086 93.547 142.027 93.547 144.422C93.547 146.817 95.4883 148.758 97.883 148.758Z" fill="#455681"/>
<path fill-rule="evenodd" clip-rule="evenodd" d="M97.602 177H93.587L93.422 177.001H87.195V177H37.75C29.052 177 22 169.948 22 161.25C22 154.773 25.91 149.209 31.498 146.79C31.4627 146.186 31.4451 145.58 31.445 144.975C31.445 127.868 45.313 114 62.42 114C76.317 114 88.076 123.151 92 135.755C93.8249 135.252 95.7092 134.998 97.602 135C109.2 135 118.602 144.402 118.602 156C118.602 167.598 109.2 177 97.602 177Z" fill="url(#paint4_linear_27_290)"/>
</g>
<defs>
<filter id="filter0_f_27_290" x="31.32" y="18.9299" width="159.249" height="160.131" filterUnits="userSpaceOnUse" color-interpolation-filters="sRGB">
<feFlood flood-opacity="0" result="BackgroundImageFix"/>
<feBlend mode="normal" in="SourceGraphic" in2="BackgroundImageFix" result="shape"/>
<feGaussianBlur stdDeviation="4" result="effect1_foregroundBlur_27_290"/>
</filter>
<filter id="filter1_i_27_290" x="49" y="37" width="119.316" height="126.909" filterUnits="userSpaceOnUse" color-interpolation-filters="sRGB">
<feFlood flood-opacity="0" result="BackgroundImageFix"/>
<feBlend mode="normal" in="SourceGraphic" in2="BackgroundImageFix" result="shape"/>
<feColorMatrix in="SourceAlpha" type="matrix" values="0 0 0 0 0 0 0 0 0 0 0 0 0 0 0 0 0 0 127 0" result="hardAlpha"/>
<feOffset dy="2.909"/>
<feGaussianBlur stdDeviation="5.237"/>
<feComposite in2="hardAlpha" operator="arithmetic" k2="-1" k3="1"/>
<feColorMatrix type="matrix" values="0 0 0 0 0.835294 0 0 0 0 0.862745 0 0 0 0 0.929412 0 0 0 0.9 0"/>
<feBlend mode="normal" in2="shape" result="effect1_innerShadow_27_290"/>
</filter>
<filter id="filter2_i_27_290" x="75.179" y="118.664" width="18.344" height="17.344" filterUnits="userSpaceOnUse" color-interpolation-filters="sRGB">
<feFlood flood-opacity="0" result="BackgroundImageFix"/>
<feBlend mode="normal" in="SourceGraphic" in2="BackgroundImageFix" result="shape"/>
<feColorMatrix in="SourceAlpha" type="matrix" values="0 0 0 0 0 0 0 0 0 0 0 0 0 0 0 0 0 0 127 0" result="hardAlpha"/>
<feOffset dx="1"/>
<feGaussianBlur stdDeviation="2"/>
<feComposite in2="hardAlpha" operator="arithmetic" k2="-1" k3="1"/>
<feColorMatrix type="matrix" values="0 0 0 0 0.25006 0 0 0 0 0.307244 0 0 0 0 0.445687 0 0 0 1 0"/>
<feBlend mode="normal" in2="shape" result="effect1_innerShadow_27_290"/>
</filter>
<filter id="filter3_i_27_290" x="66" y="68" width="15" height="15" filterUnits="userSpaceOnUse" color-interpolation-filters="sRGB">
<feFlood flood-opacity="0" result="BackgroundImageFix"/>
<feBlend mode="normal" in="SourceGraphic" in2="BackgroundImageFix" result="shape"/>
<feColorMatrix in="SourceAlpha" type="matrix" values="0 0 0 0 0 0 0 0 0 0 0 0 0 0 0 0 0 0 127 0" result="hardAlpha"/>
<feOffset dx="2" dy="2"/>
<feGaussianBlur stdDeviation="2"/>
<feComposite in2="hardAlpha" operator="arithmetic" k2="-1" k3="1"/>
<feColorMatrix type="matrix" values="0 0 0 0 0.354445 0 0 0 0 0.424695 0 0 0 0 0.594775 0 0 0 1 0"/>
<feBlend mode="normal" in2="shape" result="effect1_innerShadow_27_290"/>
</filter>
<linearGradient id="paint0_linear_27_290" x1="93.5" y1="37.5" x2="110.945" y2="171.061" gradientUnits="userSpaceOnUse">
<stop stop-color="#C4D4FF"/>
<stop offset="1" stop-color="#8B99BF" stop-opacity="0.2"/>
</linearGradient>
<linearGradient id="paint1_linear_27_290" x1="71.949" y1="141.987" x2="158.357" y2="71.101" gradientUnits="userSpaceOnUse">
<stop stop-color="#3A4A75"/>
<stop offset="1" stop-color="#A0B5EB"/>
</linearGradient>
<linearGradient id="paint2_linear_27_290" x1="89.5" y1="120.5" x2="83.851" y2="136.007" gradientUnits="userSpaceOnUse">
<stop stop-color="#4B5A83"/>
<stop offset="1" stop-color="#3E4F79"/>
</linearGradient>
<linearGradient id="paint3_linear_27_290" x1="72.5" y1="68" x2="72.5" y2="81" gradientUnits="userSpaceOnUse">
<stop stop-color="#65759F"/>
<stop offset="1" stop-color="#506497"/>
</linearGradient>
<linearGradient id="paint4_linear_27_290" x1="67.808" y1="136.225" x2="67.808" y2="177.001" gradientUnits="userSpaceOnUse">
<stop stop-color="#F3F3F3"/>
<stop offset="1" stop-color="#CDCDCD"/>
</linearGradient>
<clipPath id="clip0_27_290">
<rect width="200" height="200" fill="white"/>
</clipPath>
</defs>
</svg>
