<svg width="200" height="200" viewBox="0 0 200 200" fill="none" xmlns="http://www.w3.org/2000/svg">
<g clip-path="url(#clip0_27_290)">
<g opacity="0.1" filter="url(#filter0_f_27_290)">
<path fill-rule="evenodd" clip-rule="evenodd" d="M172.249 110.306C164.79 115.093 155.917 117.869 146.395 117.869C119.922 117.869 98.461 96.408 98.461 69.934C98.461 52.996 107.247 38.109 120.51 29.584C114.18 27.8176 107.638 26.9247 101.066 26.93C61.265 26.93 29 59.195 29 98.995C29 138.796 61.265 171.061 101.066 171.061C137.019 171.061 166.822 144.734 172.249 110.306Z" fill="url(#paint0_linear_27_290)"/>
<path fill-rule="evenodd" clip-rule="evenodd" d="M172.249 110.306C164.79 115.093 155.917 117.869 146.395 117.869C119.922 117.869 98.461 96.408 98.461 69.934C98.461 52.996 107.247 38.109 120.51 29.584C114.18 27.8176 107.638 26.9247 101.066 26.93C61.265 26.93 29 59.195 29 98.995C29 138.796 61.265 171.061 101.066 171.061C137.019 171.061 166.822 144.734 172.249 110.306Z" fill="#83B4FF" fill-opacity="0.6"/>
</g>
<g filter="url(#filter1_i_27_290)">
<path fill-rule="evenodd" clip-rule="evenodd" d="M157.996 122.682C152.141 124.883 145.935 126.007 139.68 126C110.961 126 87.68 102.719 87.68 74C87.68 59.547 93.576 46.47 103.095 37.046C102.29 37.0152 101.485 36.9999 100.68 37C66.438 37 38.68 64.758 38.68 99C38.68 133.242 66.438 161 100.68 161C126.534 161 148.692 145.175 157.996 122.682Z" fill="#D9D9D9"/>
<path fill-rule="evenodd" clip-rule="evenodd" d="M157.996 122.682C152.141 124.883 145.935 126.007 139.68 126C110.961 126 87.68 102.719 87.68 74C87.68 59.547 93.576 46.47 103.095 37.046C102.29 37.0152 101.485 36.9999 100.68 37C66.438 37 38.68 64.758 38.68 99C38.68 133.242 66.438 161 100.68 161C126.534 161 148.692 145.175 157.996 122.682Z" fill="url(#paint1_linear_27_290)"/>
</g>
<g opacity="0.6" filter="url(#filter2_i_27_290)">
<path d="M73.531 136.008C78.3204 136.008 82.203 132.125 82.203 127.336C82.203 122.547 78.3204 118.664 73.531 118.664C68.7416 118.664 64.859 122.547 64.859 127.336C64.859 132.125 68.7416 136.008 73.531 136.008Z" fill="url(#paint2_linear_27_290)"/>
</g>
<g filter="url(#filter3_i_27_290)">
<path d="M62.18 81C65.7698 81 68.68 78.0899 68.68 74.5C68.68 70.9101 65.7698 68 62.18 68C58.5901 68 55.68 70.9101 55.68 74.5C55.68 78.0899 58.5901 81 62.18 81Z" fill="url(#paint3_linear_27_290)"/>
</g>
<path d="M87.562 148.758C89.9567 148.758 91.898 146.817 91.898 144.422C91.898 142.027 89.9567 140.086 87.562 140.086C85.1673 140.086 83.226 142.027 83.226 144.422C83.226 146.817 85.1673 148.758 87.562 148.758Z" fill="#455681"/>
<path fill-rule="evenodd" clip-rule="evenodd" d="M34.239 176.963C34.383 176.963 34.526 176.961 34.669 176.958H107.351V176.953C121.516 176.951 133 165.467 133 151.301C133 137.133 121.515 125.648 107.347 125.648C104.979 125.648 102.685 125.969 100.507 126.57C95.712 111.176 81.349 100 64.376 100C43.479 100 26.539 116.94 26.539 137.837C26.539 138.583 26.561 139.324 26.603 140.059C19.777 143.014 15 149.811 15 157.723C15 168.349 23.614 176.963 34.239 176.963Z" fill="url(#paint4_linear_27_290)"/>
</g>
<defs>
<filter id="filter0_f_27_290" x="21" y="18.9299" width="159.249" height="160.131" filterUnits="userSpaceOnUse" color-interpolation-filters="sRGB">
<feFlood flood-opacity="0" result="BackgroundImageFix"/>
<feBlend mode="normal" in="SourceGraphic" in2="BackgroundImageFix" result="shape"/>
<feGaussianBlur stdDeviation="4" result="effect1_foregroundBlur_27_290"/>
</filter>
<filter id="filter1_i_27_290" x="38.68" y="37" width="119.316" height="126.909" filterUnits="userSpaceOnUse" color-interpolation-filters="sRGB">
<feFlood flood-opacity="0" result="BackgroundImageFix"/>
<feBlend mode="normal" in="SourceGraphic" in2="BackgroundImageFix" result="shape"/>
<feColorMatrix in="SourceAlpha" type="matrix" values="0 0 0 0 0 0 0 0 0 0 0 0 0 0 0 0 0 0 127 0" result="hardAlpha"/>
<feOffset dy="2.909"/>
<feGaussianBlur stdDeviation="5.237"/>
<feComposite in2="hardAlpha" operator="arithmetic" k2="-1" k3="1"/>
<feColorMatrix type="matrix" values="0 0 0 0 0.835294 0 0 0 0 0.862745 0 0 0 0 0.929412 0 0 0 0.9 0"/>
<feBlend mode="normal" in2="shape" result="effect1_innerShadow_27_290"/>
</filter>
<filter id="filter2_i_27_290" x="64.859" y="118.664" width="18.344" height="17.344" filterUnits="userSpaceOnUse" color-interpolation-filters="sRGB">
<feFlood flood-opacity="0" result="BackgroundImageFix"/>
<feBlend mode="normal" in="SourceGraphic" in2="BackgroundImageFix" result="shape"/>
<feColorMatrix in="SourceAlpha" type="matrix" values="0 0 0 0 0 0 0 0 0 0 0 0 0 0 0 0 0 0 127 0" result="hardAlpha"/>
<feOffset dx="1"/>
<feGaussianBlur stdDeviation="2"/>
<feComposite in2="hardAlpha" operator="arithmetic" k2="-1" k3="1"/>
<feColorMatrix type="matrix" values="0 0 0 0 0.25006 0 0 0 0 0.307244 0 0 0 0 0.445687 0 0 0 1 0"/>
<feBlend mode="normal" in2="shape" result="effect1_innerShadow_27_290"/>
</filter>
<filter id="filter3_i_27_290" x="55.68" y="68" width="15" height="15" filterUnits="userSpaceOnUse" color-interpolation-filters="sRGB">
<feFlood flood-opacity="0" result="BackgroundImageFix"/>
<feBlend mode="normal" in="SourceGraphic" in2="BackgroundImageFix" result="shape"/>
<feColorMatrix in="SourceAlpha" type="matrix" values="0 0 0 0 0 0 0 0 0 0 0 0 0 0 0 0 0 0 127 0" result="hardAlpha"/>
<feOffset dx="2" dy="2"/>
<feGaussianBlur stdDeviation="2"/>
<feComposite in2="hardAlpha" operator="arithmetic" k2="-1" k3="1"/>
<feColorMatrix type="matrix" values="0 0 0 0 0.354445 0 0 0 0 0.424695 0 0 0 0 0.594775 0 0 0 1 0"/>
<feBlend mode="normal" in2="shape" result="effect1_innerShadow_27_290"/>
</filter>
<linearGradient id="paint0_linear_27_290" x1="83.18" y1="37.5" x2="100.625" y2="171.061" gradientUnits="userSpaceOnUse">
<stop stop-color="#C4D4FF"/>
<stop offset="1" stop-color="#8B99BF" stop-opacity="0.2"/>
</linearGradient>
<linearGradient id="paint1_linear_27_290" x1="61.629" y1="141.987" x2="148.036" y2="71.101" gradientUnits="userSpaceOnUse">
<stop stop-color="#3A4A75"/>
<stop offset="1" stop-color="#A0B5EB"/>
</linearGradient>
<linearGradient id="paint2_linear_27_290" x1="79.18" y1="120.5" x2="73.531" y2="136.007" gradientUnits="userSpaceOnUse">
<stop stop-color="#4B5A83"/>
<stop offset="1" stop-color="#3E4F79"/>
</linearGradient>
<linearGradient id="paint3_linear_27_290" x1="62.18" y1="68" x2="62.18" y2="81" gradientUnits="userSpaceOnUse">
<stop stop-color="#65759F"/>
<stop offset="1" stop-color="#506497"/>
</linearGradient>
<linearGradient id="paint4_linear_27_290" x1="70.955" y1="127.15" x2="70.955" y2="176.962" gradientUnits="userSpaceOnUse">
<stop stop-color="#F3F3F3"/>
<stop offset="1" stop-color="#CDCDCD"/>
</linearGradient>
<clipPath id="clip0_27_290">
<rect width="200" height="200" fill="white"/>
</clipPath>
</defs>
</svg>
