<svg width="200" height="200" viewBox="0 0 200 200" fill="none" xmlns="http://www.w3.org/2000/svg">
<g clip-path="url(#clip0_27_290)">
<path fill-rule="evenodd" clip-rule="evenodd" d="M132.078 109.697H96.686C96.512 109.7 96.337 109.701 96.163 109.701C75.259 109.701 58.312 92.754 58.312 71.851C58.312 50.946 75.259 34 96.163 34C112.238 34 125.972 44.02 131.46 58.156H150.926C165.159 58.156 176.697 69.694 176.697 83.926C176.697 98.159 165.159 109.697 150.926 109.697H132.786C132.55 109.701 132.314 109.701 132.078 109.697Z" fill="url(#paint0_linear_27_290)"/>
<path fill-rule="evenodd" clip-rule="evenodd" d="M155.865 133.331C155.865 149.162 143.031 161.996 127.2 161.997V162H45.5C33.626 162 24 152.374 24 140.5C24 131.657 29.339 124.06 36.97 120.759C36.9219 119.935 36.8978 119.109 36.898 118.283C36.898 94.931 55.829 76 79.182 76C98.15 76 114.2 88.49 119.559 105.693C122.047 105.008 124.617 104.662 127.198 104.664C143.03 104.664 155.865 117.499 155.865 133.331Z" fill="url(#paint1_linear_27_290)"/>
</g>
<defs>
<linearGradient id="paint0_linear_27_290" x1="154.953" y1="25.073" x2="123.427" y2="108.617" gradientUnits="userSpaceOnUse">
<stop stop-color="#DBD9D9"/>
<stop offset="1" stop-color="#B4B4B4"/>
</linearGradient>
<linearGradient id="paint1_linear_27_290" x1="131.645" y1="65.859" x2="95.299" y2="160.295" gradientUnits="userSpaceOnUse">
<stop stop-color="#E4E4E4"/>
<stop offset="1" stop-color="#C6C6C6"/>
</linearGradient>
<clipPath id="clip0_27_290">
<rect width="200" height="200" fill="white"/>
</clipPath>
</defs>
</svg>
