<svg width="200" height="200" viewBox="0 0 200 200" fill="none" xmlns="http://www.w3.org/2000/svg">
<g clip-path="url(#clip0_27_290)">
<g opacity="0.1" filter="url(#filter0_f_27_290)">
<path d="M100.225 26H100.224C59.7835 26 27 58.7835 27 99.224V99.225C27 139.665 59.7835 172.449 100.224 172.449H100.225C140.666 172.449 173.449 139.665 173.449 99.225V99.224C173.449 58.7835 140.666 26 100.225 26Z" fill="#CCDCE2"/>
</g>
<path d="M48.664 89.469V114.13M59.344 107.969L37.987 95.638M59.344 95.641L37.987 107.971M100.531 89.469V114.13M111.211 107.969L89.854 95.638M111.211 95.641L89.854 107.971M152.398 89.469V114.13M163.078 107.969L141.721 95.638M163.078 95.641L141.721 107.971M74.898 39.422V64.082M85.578 57.922L64.221 45.592M85.578 45.586L64.221 57.916M126.781 39.422V64.082M137.461 57.922L116.104 45.592M137.461 45.586L116.104 57.916M74.898 139.492V164.153M85.578 157.984L64.221 145.654M85.578 145.656L64.221 157.987M126.781 139.492V164.153M137.461 157.984L116.104 145.654M137.461 145.656L116.104 157.987" stroke="white" stroke-width="6.102" stroke-linecap="square"/>
</g>
<defs>
<filter id="filter0_f_27_290" x="-20.596" y="-21.596" width="241.641" height="241.641" filterUnits="userSpaceOnUse" color-interpolation-filters="sRGB">
<feFlood flood-opacity="0" result="BackgroundImageFix"/>
<feBlend mode="normal" in="SourceGraphic" in2="BackgroundImageFix" result="shape"/>
<feGaussianBlur stdDeviation="23.798" result="effect1_foregroundBlur_27_290"/>
</filter>
<clipPath id="clip0_27_290">
<rect width="200" height="200" fill="white"/>
</clipPath>
</defs>
</svg>
