<svg width="200" height="200" viewBox="0 0 200 200" fill="none" xmlns="http://www.w3.org/2000/svg">
<g clip-path="url(#clip0_27_290)">
<g opacity="0.3" filter="url(#filter0_f_27_290)">
<path d="M100.897 26H100.896C60.4555 26 27.672 58.7835 27.672 99.224V99.225C27.672 139.665 60.4555 172.449 100.896 172.449H100.897C141.338 172.449 174.121 139.665 174.121 99.225V99.224C174.121 58.7835 141.338 26 100.897 26Z" fill="#CCDCE2"/>
</g>
<path d="M110.498 83.461L101.523 108.117M91.422 104.594L107.219 123.531M111.469 111.961L87.17 116.174M103.57 102.484L95.069 125.634M125.147 121.413L115.547 147.789M105.438 144.266L121.235 163.202M125.484 151.633L101.186 155.845M117.586 142.156L109.085 165.306M91.577 46.358L81.977 72.734M71.883 69.21L87.68 88.148M91.93 76.578L67.631 80.791M84.031 67.102L75.53 90.251M124.522 46.457C123.053 50.492 117.514 65.096 116.164 68.805M174.257 73.915L169.039 88.25M29.797 99.734L45.594 118.671M49.844 107.102L25.545 111.314M41.945 97.625L33.444 120.774M49.491 76.881L39.891 103.258M59.726 51.338C57.957 56.198 57.439 57.243 55.812 61.711M68.389 112.256L58.789 138.633M48.688 135.109L64.485 154.046M68.734 142.477L44.436 146.689M60.836 133L52.335 156.149M153.661 46.661L142.391 77.625M132.281 74.102L148.079 93.038M152.328 81.469L128.029 85.681M144.43 71.992L135.929 95.142M162.975 104.327L153.375 130.703M143.266 127.18L159.063 146.117M163.312 134.547L139.014 138.759M155.414 125.07L146.913 148.22" stroke="white" stroke-width="6.102" stroke-linecap="square"/>
</g>
<defs>
<filter id="filter0_f_27_290" x="-19.924" y="-21.596" width="241.641" height="241.641" filterUnits="userSpaceOnUse" color-interpolation-filters="sRGB">
<feFlood flood-opacity="0" result="BackgroundImageFix"/>
<feBlend mode="normal" in="SourceGraphic" in2="BackgroundImageFix" result="shape"/>
<feGaussianBlur stdDeviation="23.798" result="effect1_foregroundBlur_27_290"/>
</filter>
<clipPath id="clip0_27_290">
<rect width="200" height="200" fill="white"/>
</clipPath>
</defs>
</svg>
