<svg width="200" height="200" viewBox="0 0 200 200" fill="none" xmlns="http://www.w3.org/2000/svg">
<g clip-path="url(#clip0_27_290)">
<path fill-rule="evenodd" clip-rule="evenodd" d="M41.281 82.52C41.281 82.775 41.283 83.03 41.288 83.283C32.916 86.619 27 94.799 27 104.36C27 116.886 37.154 127.04 49.68 127.04H126.96V126.914C127.93 126.998 128.911 127.04 129.903 127.04C148.692 127.04 163.923 111.809 163.923 93.02C163.923 74.231 148.692 59 129.903 59C127.865 59 125.869 59.18 123.929 59.523C116.132 46.623 101.974 38 85.801 38C61.214 38 41.281 57.932 41.281 82.52Z" fill="#F3F3F3" fill-opacity="0.5"/>
<path fill-rule="evenodd" clip-rule="evenodd" d="M41.281 82.52C41.281 82.775 41.283 83.03 41.288 83.283C32.916 86.619 27 94.799 27 104.36C27 116.886 37.154 127.04 49.68 127.04H126.96V126.914C127.93 126.998 128.911 127.04 129.903 127.04C148.692 127.04 163.923 111.809 163.923 93.02C163.923 74.231 148.692 59 129.903 59C127.865 59 125.869 59.18 123.929 59.523C116.132 46.623 101.974 38 85.801 38C61.214 38 41.281 57.932 41.281 82.52Z" fill="url(#paint0_linear_27_290)"/>
<path fill-rule="evenodd" clip-rule="evenodd" d="M115.451 144C115.451 143.735 115.346 143.48 115.158 143.293C114.971 143.105 114.716 143 114.451 143H40C39.7348 143 39.4804 143.105 39.2929 143.293C39.1054 143.48 39 143.735 39 144V150C39 150.265 39.1054 150.52 39.2929 150.707C39.4804 150.895 39.7348 151 40 151H114.451C114.716 151 114.971 150.895 115.158 150.707C115.346 150.52 115.451 150.265 115.451 150V144ZM144.218 144C144.218 143.735 144.113 143.48 143.925 143.293C143.738 143.105 143.483 143 143.218 143H126.289C126.024 143 125.769 143.105 125.582 143.293C125.394 143.48 125.289 143.735 125.289 144V150C125.289 150.265 125.394 150.52 125.582 150.707C125.769 150.895 126.024 151 126.289 151H143.218C143.483 151 143.738 150.895 143.925 150.707C144.113 150.52 144.218 150.265 144.218 150V144ZM56.258 164.133C56.258 163.868 56.3634 163.613 56.5509 163.426C56.7384 163.238 56.9928 163.133 57.258 163.133H74.187C74.4522 163.133 74.7066 163.238 74.8941 163.426C75.0816 163.613 75.187 163.868 75.187 164.133V170.133C75.187 170.398 75.0816 170.653 74.8941 170.84C74.7066 171.028 74.4522 171.133 74.187 171.133H57.258C56.9928 171.133 56.7384 171.028 56.5509 170.84C56.3634 170.653 56.258 170.398 56.258 170.133V164.133ZM103.945 163.133H86.016C85.7508 163.133 85.4964 163.238 85.3089 163.426C85.1214 163.613 85.016 163.868 85.016 164.133V170.133C85.016 170.398 85.1214 170.653 85.3089 170.84C85.4964 171.028 85.7508 171.133 86.016 171.133H131.706C131.971 171.133 132.226 171.028 132.413 170.84C132.601 170.653 132.706 170.398 132.706 170.133V164.133C132.706 163.868 132.601 163.613 132.413 163.426C132.226 163.238 131.971 163.133 131.706 163.133H103.945ZM161.468 164.133C161.468 163.868 161.363 163.613 161.175 163.426C160.988 163.238 160.733 163.133 160.468 163.133H143.539C143.274 163.133 143.019 163.238 142.832 163.426C142.644 163.613 142.539 163.868 142.539 164.133V170.133C142.539 170.398 142.644 170.653 142.832 170.84C143.019 171.028 143.274 171.133 143.539 171.133H160.468C160.733 171.133 160.988 171.028 161.175 170.84C161.363 170.653 161.468 170.398 161.468 170.133V164.133ZM39 184.266C39 184.001 39.1054 183.746 39.2929 183.559C39.4804 183.371 39.7348 183.266 40 183.266H56.929C57.1942 183.266 57.4486 183.371 57.6361 183.559C57.8236 183.746 57.929 184.001 57.929 184.266V190.266C57.929 190.531 57.8236 190.786 57.6361 190.973C57.4486 191.161 57.1942 191.266 56.929 191.266H40C39.7348 191.266 39.4804 191.161 39.2929 190.973C39.1054 190.786 39 190.531 39 190.266V184.266ZM86.695 184.266C86.695 184.001 86.5896 183.746 86.4021 183.559C86.2146 183.371 85.9602 183.266 85.695 183.266H68.766C68.5008 183.266 68.2464 183.371 68.0589 183.559C67.8714 183.746 67.766 184.001 67.766 184.266V190.266C67.766 190.531 67.8714 190.786 68.0589 190.973C68.2464 191.161 68.5008 191.266 68.766 191.266H85.695C85.9602 191.266 86.2146 191.161 86.4021 190.973C86.5896 190.786 86.695 190.531 86.695 190.266V184.266ZM96.523 184.266C96.523 184.001 96.6284 183.746 96.8159 183.559C97.0034 183.371 97.2578 183.266 97.523 183.266H143.213C143.478 183.266 143.733 183.371 143.92 183.559C144.108 183.746 144.213 184.001 144.213 184.266V190.266C144.213 190.531 144.108 190.786 143.92 190.973C143.733 191.161 143.478 191.266 143.213 191.266H97.523C97.2578 191.266 97.0034 191.161 96.8159 190.973C96.6284 190.786 96.523 190.531 96.523 190.266V184.266Z" fill="#E0E0E0"/>
</g>
<defs>
<linearGradient id="paint0_linear_27_290" x1="56.871" y1="59.742" x2="127.93" y2="169.589" gradientUnits="userSpaceOnUse">
<stop stop-color="#E0E0E0"/>
<stop offset="0.859" stop-color="#A4A4A4"/>
</linearGradient>
<clipPath id="clip0_27_290">
<rect width="200" height="200" fill="white"/>
</clipPath>
</defs>
</svg>
