<svg width="200" height="200" viewBox="0 0 200 200" fill="none" xmlns="http://www.w3.org/2000/svg">
<g clip-path="url(#clip0_27_290)">
<path fill-rule="evenodd" clip-rule="evenodd" d="M46.281 80.52C46.281 80.775 46.283 81.03 46.288 81.283C37.916 84.619 32 92.799 32 102.36C32 114.886 42.154 125.04 54.68 125.04H131.96V124.914C132.93 124.998 133.911 125.04 134.903 125.04C153.692 125.04 168.923 109.809 168.923 91.02C168.923 72.231 153.692 57 134.903 57C132.865 57 130.869 57.18 128.929 57.523C121.132 44.623 106.974 36 90.801 36C66.214 36 46.281 55.932 46.281 80.52Z" fill="#F3F3F3" fill-opacity="0.5"/>
<path fill-rule="evenodd" clip-rule="evenodd" d="M46.281 80.52C46.281 80.775 46.283 81.03 46.288 81.283C37.916 84.619 32 92.799 32 102.36C32 114.886 42.154 125.04 54.68 125.04H131.96V124.914C132.93 124.998 133.911 125.04 134.903 125.04C153.692 125.04 168.923 109.809 168.923 91.02C168.923 72.231 153.692 57 134.903 57C132.865 57 130.869 57.18 128.929 57.523C121.132 44.623 106.974 36 90.801 36C66.214 36 46.281 55.932 46.281 80.52Z" fill="url(#paint0_linear_27_290)"/>
<g filter="url(#filter0_di_27_290)">
<path d="M53.336 155L63.3359 145L73.3358 155L63.3359 165L53.336 155Z" fill="url(#paint1_linear_27_290)"/>
<path d="M54.41 155L63.3365 146.073L72.2631 155L63.3365 163.927L54.41 155Z" stroke="url(#paint2_linear_27_290)" stroke-opacity="0.2" stroke-width="1.519"/>
</g>
<g filter="url(#filter1_di_27_290)">
<path d="M90 155L99.9999 145L110 155L99.9999 165L90 155Z" fill="url(#paint3_linear_27_290)"/>
<path d="M91.074 155L100 146.073L108.927 155L100 163.927L91.074 155Z" stroke="url(#paint4_linear_27_290)" stroke-opacity="0.2" stroke-width="1.519"/>
</g>
<g filter="url(#filter2_di_27_290)">
<path d="M126.672 155L136.672 145L146.672 155L136.672 165L126.672 155Z" fill="url(#paint5_linear_27_290)"/>
<path d="M127.746 155L136.673 146.073L145.599 155L136.673 163.927L127.746 155Z" stroke="url(#paint6_linear_27_290)" stroke-opacity="0.2" stroke-width="1.519"/>
</g>
</g>
<defs>
<filter id="filter0_di_27_290" x="44.4479" y="136.111" width="37.7772" height="37.7772" filterUnits="userSpaceOnUse" color-interpolation-filters="sRGB">
<feFlood flood-opacity="0" result="BackgroundImageFix"/>
<feColorMatrix in="SourceAlpha" type="matrix" values="0 0 0 0 0 0 0 0 0 0 0 0 0 0 0 0 0 0 127 0" result="hardAlpha"/>
<feOffset/>
<feGaussianBlur stdDeviation="4.444"/>
<feComposite in2="hardAlpha" operator="out"/>
<feColorMatrix type="matrix" values="0 0 0 0 0 0 0 0 0 0 0 0 0 0 0 0 0 0 0.22 0"/>
<feBlend mode="normal" in2="BackgroundImageFix" result="effect1_dropShadow_27_290"/>
<feBlend mode="normal" in="SourceGraphic" in2="effect1_dropShadow_27_290" result="shape"/>
<feColorMatrix in="SourceAlpha" type="matrix" values="0 0 0 0 0 0 0 0 0 0 0 0 0 0 0 0 0 0 127 0" result="hardAlpha"/>
<feOffset dy="4.444"/>
<feGaussianBlur stdDeviation="2.222"/>
<feComposite in2="hardAlpha" operator="arithmetic" k2="-1" k3="1"/>
<feColorMatrix type="matrix" values="0 0 0 0 1 0 0 0 0 1 0 0 0 0 1 0 0 0 0.25 0"/>
<feBlend mode="normal" in2="shape" result="effect2_innerShadow_27_290"/>
</filter>
<filter id="filter1_di_27_290" x="81.1119" y="136.111" width="37.7772" height="37.7772" filterUnits="userSpaceOnUse" color-interpolation-filters="sRGB">
<feFlood flood-opacity="0" result="BackgroundImageFix"/>
<feColorMatrix in="SourceAlpha" type="matrix" values="0 0 0 0 0 0 0 0 0 0 0 0 0 0 0 0 0 0 127 0" result="hardAlpha"/>
<feOffset/>
<feGaussianBlur stdDeviation="4.444"/>
<feComposite in2="hardAlpha" operator="out"/>
<feColorMatrix type="matrix" values="0 0 0 0 0 0 0 0 0 0 0 0 0 0 0 0 0 0 0.22 0"/>
<feBlend mode="normal" in2="BackgroundImageFix" result="effect1_dropShadow_27_290"/>
<feBlend mode="normal" in="SourceGraphic" in2="effect1_dropShadow_27_290" result="shape"/>
<feColorMatrix in="SourceAlpha" type="matrix" values="0 0 0 0 0 0 0 0 0 0 0 0 0 0 0 0 0 0 127 0" result="hardAlpha"/>
<feOffset dy="4.444"/>
<feGaussianBlur stdDeviation="2.222"/>
<feComposite in2="hardAlpha" operator="arithmetic" k2="-1" k3="1"/>
<feColorMatrix type="matrix" values="0 0 0 0 1 0 0 0 0 1 0 0 0 0 1 0 0 0 0.25 0"/>
<feBlend mode="normal" in2="shape" result="effect2_innerShadow_27_290"/>
</filter>
<filter id="filter2_di_27_290" x="117.784" y="136.111" width="37.7772" height="37.7772" filterUnits="userSpaceOnUse" color-interpolation-filters="sRGB">
<feFlood flood-opacity="0" result="BackgroundImageFix"/>
<feColorMatrix in="SourceAlpha" type="matrix" values="0 0 0 0 0 0 0 0 0 0 0 0 0 0 0 0 0 0 127 0" result="hardAlpha"/>
<feOffset/>
<feGaussianBlur stdDeviation="4.444"/>
<feComposite in2="hardAlpha" operator="out"/>
<feColorMatrix type="matrix" values="0 0 0 0 0 0 0 0 0 0 0 0 0 0 0 0 0 0 0.22 0"/>
<feBlend mode="normal" in2="BackgroundImageFix" result="effect1_dropShadow_27_290"/>
<feBlend mode="normal" in="SourceGraphic" in2="effect1_dropShadow_27_290" result="shape"/>
<feColorMatrix in="SourceAlpha" type="matrix" values="0 0 0 0 0 0 0 0 0 0 0 0 0 0 0 0 0 0 127 0" result="hardAlpha"/>
<feOffset dy="4.444"/>
<feGaussianBlur stdDeviation="2.222"/>
<feComposite in2="hardAlpha" operator="arithmetic" k2="-1" k3="1"/>
<feColorMatrix type="matrix" values="0 0 0 0 1 0 0 0 0 1 0 0 0 0 1 0 0 0 0.25 0"/>
<feBlend mode="normal" in2="shape" result="effect2_innerShadow_27_290"/>
</filter>
<linearGradient id="paint0_linear_27_290" x1="61.871" y1="57.742" x2="132.93" y2="167.589" gradientUnits="userSpaceOnUse">
<stop stop-color="#E0E0E0"/>
<stop offset="0.859" stop-color="#A4A4A4"/>
</linearGradient>
<linearGradient id="paint1_linear_27_290" x1="58.3359" y1="150" x2="68.3359" y2="160" gradientUnits="userSpaceOnUse">
<stop stop-color="#C9C9C9"/>
<stop offset="1" stop-color="#DDDDDD"/>
</linearGradient>
<linearGradient id="paint2_linear_27_290" x1="58.6506" y1="150.759" x2="68.6504" y2="160.759" gradientUnits="userSpaceOnUse">
<stop stop-color="#F0F0F0" stop-opacity="0.7"/>
<stop offset="1" stop-color="white"/>
</linearGradient>
<linearGradient id="paint3_linear_27_290" x1="95" y1="150" x2="105" y2="160" gradientUnits="userSpaceOnUse">
<stop stop-color="#C9C9C9"/>
<stop offset="1" stop-color="#DDDDDD"/>
</linearGradient>
<linearGradient id="paint4_linear_27_290" x1="95.3145" y1="150.759" x2="105.314" y2="160.759" gradientUnits="userSpaceOnUse">
<stop stop-color="#F0F0F0" stop-opacity="0.7"/>
<stop offset="1" stop-color="white"/>
</linearGradient>
<linearGradient id="paint5_linear_27_290" x1="131.672" y1="150" x2="141.672" y2="160" gradientUnits="userSpaceOnUse">
<stop stop-color="#C9C9C9"/>
<stop offset="1" stop-color="#DDDDDD"/>
</linearGradient>
<linearGradient id="paint6_linear_27_290" x1="131.987" y1="150.759" x2="141.986" y2="160.759" gradientUnits="userSpaceOnUse">
<stop stop-color="#F0F0F0" stop-opacity="0.7"/>
<stop offset="1" stop-color="white"/>
</linearGradient>
<clipPath id="clip0_27_290">
<rect width="200" height="200" fill="white"/>
</clipPath>
</defs>
</svg>
