<svg width="200" height="200" viewBox="0 0 200 200" fill="none" xmlns="http://www.w3.org/2000/svg">
<g clip-path="url(#clip0_27_290)">
<path fill-rule="evenodd" clip-rule="evenodd" d="M165.865 95.33C165.865 111.162 153.031 123.996 137.2 123.997V124H55.5C43.626 124 34 114.374 34 102.5C34 93.657 39.339 86.06 46.97 82.759C46.9218 81.9345 46.8978 81.1089 46.898 80.283C46.898 56.931 65.829 38 89.182 38C108.15 38 124.2 50.49 129.559 67.693C132.047 67.008 134.617 66.6619 137.198 66.664C153.03 66.664 165.865 79.498 165.865 95.33Z" fill="url(#paint0_linear_27_290)"/>
<path d="M104.289 161.25V138.003M94.219 143.812L114.352 155.436M94.219 155.438L114.352 143.814M142.422 161.25V138.003M132.352 143.812L152.484 155.436M132.352 155.438L152.484 143.814" stroke="white" stroke-width="5.752" stroke-linecap="square"/>
<path d="M52.607 142.031L47 157.436M76.217 142.031L70.61 157.436" stroke="#14A2D4" stroke-width="8" stroke-linecap="square"/>
</g>
<defs>
<linearGradient id="paint0_linear_27_290" x1="141.645" y1="27.858" x2="105.299" y2="122.295" gradientUnits="userSpaceOnUse">
<stop stop-color="#E4E4E4"/>
<stop offset="1" stop-color="#C6C6C6"/>
</linearGradient>
<clipPath id="clip0_27_290">
<rect width="200" height="200" fill="white"/>
</clipPath>
</defs>
</svg>
