<svg width="200" height="200" viewBox="0 0 200 200" fill="none" xmlns="http://www.w3.org/2000/svg">
<g clip-path="url(#clip0_27_290)">
<g opacity="0.1" filter="url(#filter0_f_27_290)">
<path d="M171 76C171 104.167 148.167 127 120 127C91.833 127 69 104.167 69 76C69 47.834 91.833 25 120 25C148.167 25 171 47.834 171 76Z" fill="#FFE600"/>
</g>
<path d="M160.446 75.903C160.446 98.294 142.294 116.446 119.903 116.446C97.511 116.446 79.359 98.294 79.359 75.903C79.359 53.511 97.511 35.359 119.903 35.359C142.294 35.359 160.446 53.511 160.446 75.903Z" fill="url(#paint0_linear_27_290)"/>
<g opacity="0.2" filter="url(#filter1_f_27_290)">
<path d="M122.696 37.6021H117.11C96.1768 37.6021 79.207 54.5718 79.207 75.505C79.207 96.4383 96.1768 113.408 117.11 113.408H122.696C143.629 113.408 160.599 96.4383 160.599 75.505C160.599 54.5718 143.629 37.6021 122.696 37.6021Z" fill="#FFEF9A"/>
</g>
<g opacity="0.1" filter="url(#filter2_f_27_290)">
<path d="M134.798 136.953H61.202C57.7767 136.953 55 139.73 55 143.155C55 146.58 57.7767 149.357 61.202 149.357H134.798C138.223 149.357 141 146.58 141 143.155C141 139.73 138.223 136.953 134.798 136.953Z" fill="#14A2D4"/>
</g>
<path d="M46.208 173.735L54.558 150.794M67.835 173.735L76.185 150.794M111.089 173.735L119.439 150.794M89.474 173.735L97.824 150.794" stroke="#14A2D4" stroke-width="5.996" stroke-linecap="square"/>
<g filter="url(#filter3_d_27_290)">
<path fill-rule="evenodd" clip-rule="evenodd" d="M47.75 136.999V137H118.999V136.999H119C132.806 136.999 143.999 125.806 143.999 112C143.999 98.193 132.806 87 119 87C116.69 87 114.453 87.313 112.33 87.9C107.659 72.894 93.66 62 77.117 62C56.751 62 40.242 78.51 40.242 98.874C40.242 99.6 40.263 100.321 40.305 101.036C33.653 103.917 29 110.54 29 118.25C29 128.605 37.395 136.999 47.75 136.999Z" fill="url(#paint1_linear_27_290)"/>
</g>
</g>
<defs>
<filter id="filter0_f_27_290" x="67.692" y="23.692" width="104.616" height="104.616" filterUnits="userSpaceOnUse" color-interpolation-filters="sRGB">
<feFlood flood-opacity="0" result="BackgroundImageFix"/>
<feBlend mode="normal" in="SourceGraphic" in2="BackgroundImageFix" result="shape"/>
<feGaussianBlur stdDeviation="0.654" result="effect1_foregroundBlur_27_290"/>
</filter>
<filter id="filter1_f_27_290" x="39.309" y="-2.29595" width="161.188" height="155.602" filterUnits="userSpaceOnUse" color-interpolation-filters="sRGB">
<feFlood flood-opacity="0" result="BackgroundImageFix"/>
<feBlend mode="normal" in="SourceGraphic" in2="BackgroundImageFix" result="shape"/>
<feGaussianBlur stdDeviation="19.949" result="effect1_foregroundBlur_27_290"/>
</filter>
<filter id="filter2_f_27_290" x="27.164" y="109.117" width="141.672" height="68.0759" filterUnits="userSpaceOnUse" color-interpolation-filters="sRGB">
<feFlood flood-opacity="0" result="BackgroundImageFix"/>
<feBlend mode="normal" in="SourceGraphic" in2="BackgroundImageFix" result="shape"/>
<feGaussianBlur stdDeviation="13.918" result="effect1_foregroundBlur_27_290"/>
</filter>
<filter id="filter3_d_27_290" x="19" y="52" width="134.999" height="95" filterUnits="userSpaceOnUse" color-interpolation-filters="sRGB">
<feFlood flood-opacity="0" result="BackgroundImageFix"/>
<feColorMatrix in="SourceAlpha" type="matrix" values="0 0 0 0 0 0 0 0 0 0 0 0 0 0 0 0 0 0 127 0" result="hardAlpha"/>
<feOffset/>
<feGaussianBlur stdDeviation="5"/>
<feComposite in2="hardAlpha" operator="out"/>
<feColorMatrix type="matrix" values="0 0 0 0 0 0 0 0 0 0 0 0 0 0 0 0 0 0 0.1 0"/>
<feBlend mode="normal" in2="BackgroundImageFix" result="effect1_dropShadow_27_290"/>
<feBlend mode="normal" in="SourceGraphic" in2="effect1_dropShadow_27_290" result="shape"/>
</filter>
<linearGradient id="paint0_linear_27_290" x1="113.744" y1="97.971" x2="147.103" y2="39.465" gradientUnits="userSpaceOnUse">
<stop stop-color="#FF9900"/>
<stop offset="1" stop-color="#FFEE94"/>
</linearGradient>
<linearGradient id="paint1_linear_27_290" x1="83.532" y1="88.458" x2="83.532" y2="153.664" gradientUnits="userSpaceOnUse">
<stop stop-color="#F3F3F3"/>
<stop offset="1" stop-color="#CDCDCD"/>
</linearGradient>
<clipPath id="clip0_27_290">
<rect width="200" height="200" fill="white"/>
</clipPath>
</defs>
</svg>
