<svg width="200" height="200" viewBox="0 0 200 200" fill="none" xmlns="http://www.w3.org/2000/svg">
<g clip-path="url(#clip0_27_290)">
<g opacity="0.2" filter="url(#filter0_f_27_290)">
<path d="M113 154H43C38.5817 154 35 157.582 35 162C35 166.418 38.5817 170 43 170H113C117.418 170 121 166.418 121 162C121 157.582 117.418 154 113 154Z" fill="#14A2D4"/>
</g>
<g opacity="0.1" filter="url(#filter1_f_27_290)">
<path d="M163 77C163 105.167 140.167 128 112 128C83.833 128 61 105.167 61 77C61 48.834 83.833 26 112 26C140.167 26 163 48.834 163 77Z" fill="#FFE600"/>
</g>
<path d="M152.446 76.903C152.446 99.294 134.294 117.446 111.903 117.446C89.511 117.446 71.359 99.294 71.359 76.903C71.359 54.511 89.511 36.359 111.903 36.359C134.294 36.359 152.446 54.511 152.446 76.903Z" fill="url(#paint0_linear_27_290)"/>
<g opacity="0.2" filter="url(#filter2_f_27_290)">
<path d="M114.696 38.6021H109.11C88.1768 38.6021 71.207 55.5718 71.207 76.505C71.207 97.4383 88.1768 114.408 109.11 114.408H114.696C135.629 114.408 152.599 97.4383 152.599 76.505C152.599 55.5718 135.629 38.6021 114.696 38.6021Z" fill="#FFEF9A"/>
</g>
<g filter="url(#filter3_d_27_290)">
<path d="M46.4 154V168.782M52.803 165.086L40.001 157.695M52.803 157.695L40.001 165.086M77.486 154V168.782M83.889 165.086L71.087 157.695M83.889 157.695L71.087 165.086M108.6 154V168.782M115.002 165.086L102.2 157.695M115.002 157.695L102.2 165.086" stroke="white" stroke-width="3.658" stroke-linecap="square"/>
</g>
<g filter="url(#filter4_d_27_290)">
<path fill-rule="evenodd" clip-rule="evenodd" d="M111 137.999H106.221L106.025 138.001H98.612V137.999H39.75C29.395 137.999 21 129.604 21 119.249C21 111.539 25.654 104.915 32.306 102.035C32.2647 101.315 32.244 100.595 32.244 99.874C32.244 79.509 48.753 63 69.119 63C85.662 63 99.66 73.894 104.332 88.899C106.455 88.313 108.691 87.999 111 87.999C124.807 87.999 136 99.192 136 112.999C136 126.806 124.807 137.999 111 137.999Z" fill="url(#paint1_linear_27_290)"/>
</g>
</g>
<defs>
<filter id="filter0_f_27_290" x="7.164" y="126.164" width="141.672" height="71.672" filterUnits="userSpaceOnUse" color-interpolation-filters="sRGB">
<feFlood flood-opacity="0" result="BackgroundImageFix"/>
<feBlend mode="normal" in="SourceGraphic" in2="BackgroundImageFix" result="shape"/>
<feGaussianBlur stdDeviation="13.918" result="effect1_foregroundBlur_27_290"/>
</filter>
<filter id="filter1_f_27_290" x="59.692" y="24.692" width="104.616" height="104.616" filterUnits="userSpaceOnUse" color-interpolation-filters="sRGB">
<feFlood flood-opacity="0" result="BackgroundImageFix"/>
<feBlend mode="normal" in="SourceGraphic" in2="BackgroundImageFix" result="shape"/>
<feGaussianBlur stdDeviation="0.654" result="effect1_foregroundBlur_27_290"/>
</filter>
<filter id="filter2_f_27_290" x="31.309" y="-1.29595" width="161.188" height="155.602" filterUnits="userSpaceOnUse" color-interpolation-filters="sRGB">
<feFlood flood-opacity="0" result="BackgroundImageFix"/>
<feBlend mode="normal" in="SourceGraphic" in2="BackgroundImageFix" result="shape"/>
<feGaussianBlur stdDeviation="19.949" result="effect1_foregroundBlur_27_290"/>
</filter>
<filter id="filter3_d_27_290" x="34.6185" y="149.287" width="85.7659" height="24.2079" filterUnits="userSpaceOnUse" color-interpolation-filters="sRGB">
<feFlood flood-opacity="0" result="BackgroundImageFix"/>
<feColorMatrix in="SourceAlpha" type="matrix" values="0 0 0 0 0 0 0 0 0 0 0 0 0 0 0 0 0 0 127 0" result="hardAlpha"/>
<feOffset/>
<feGaussianBlur stdDeviation="1.442"/>
<feComposite in2="hardAlpha" operator="out"/>
<feColorMatrix type="matrix" values="0 0 0 0 0 0 0 0 0 0 0 0 0 0 0 0 0 0 0.25 0"/>
<feBlend mode="normal" in2="BackgroundImageFix" result="effect1_dropShadow_27_290"/>
<feBlend mode="normal" in="SourceGraphic" in2="effect1_dropShadow_27_290" result="shape"/>
</filter>
<filter id="filter4_d_27_290" x="11" y="53" width="135" height="95.001" filterUnits="userSpaceOnUse" color-interpolation-filters="sRGB">
<feFlood flood-opacity="0" result="BackgroundImageFix"/>
<feColorMatrix in="SourceAlpha" type="matrix" values="0 0 0 0 0 0 0 0 0 0 0 0 0 0 0 0 0 0 127 0" result="hardAlpha"/>
<feOffset/>
<feGaussianBlur stdDeviation="5"/>
<feComposite in2="hardAlpha" operator="out"/>
<feColorMatrix type="matrix" values="0 0 0 0 0 0 0 0 0 0 0 0 0 0 0 0 0 0 0.1 0"/>
<feBlend mode="normal" in2="BackgroundImageFix" result="effect1_dropShadow_27_290"/>
<feBlend mode="normal" in="SourceGraphic" in2="effect1_dropShadow_27_290" result="shape"/>
</filter>
<linearGradient id="paint0_linear_27_290" x1="105.744" y1="98.971" x2="139.103" y2="40.465" gradientUnits="userSpaceOnUse">
<stop stop-color="#FF9900"/>
<stop offset="1" stop-color="#FFEE94"/>
</linearGradient>
<linearGradient id="paint1_linear_27_290" x1="75.533" y1="89.458" x2="75.533" y2="154.665" gradientUnits="userSpaceOnUse">
<stop stop-color="#F3F3F3"/>
<stop offset="1" stop-color="#CDCDCD"/>
</linearGradient>
<clipPath id="clip0_27_290">
<rect width="200" height="200" fill="white"/>
</clipPath>
</defs>
</svg>
