<svg width="200" height="200" viewBox="0 0 200 200" fill="none" xmlns="http://www.w3.org/2000/svg">
<g clip-path="url(#clip0_27_290)">
<path fill-rule="evenodd" clip-rule="evenodd" d="M119.978 140.859H143.757C143.874 140.861 143.991 140.861 144.108 140.861C158.153 140.861 169.539 129.476 169.539 115.431C169.539 101.386 158.153 90 144.108 90C133.308 90 124.08 96.733 120.393 106.23H107.314C97.752 106.23 90 113.982 90 123.544C90 133.107 97.752 140.859 107.314 140.859H119.502C119.661 140.861 119.819 140.861 119.978 140.859Z" fill="url(#paint0_linear_27_290)"/>
<g opacity="0.1" filter="url(#filter0_f_27_290)">
<path d="M153 92C153 120.167 130.167 143 102 143C73.833 143 51 120.167 51 92C51 63.834 73.833 41 102 41C130.167 41 153 63.834 153 92Z" fill="#FFE600"/>
</g>
<path d="M142.446 91.903C142.446 114.294 124.294 132.446 101.903 132.446C79.511 132.446 61.359 114.294 61.359 91.903C61.359 69.511 79.511 51.359 101.903 51.359C124.294 51.359 142.446 69.511 142.446 91.903Z" fill="url(#paint1_linear_27_290)"/>
<g opacity="0.2" filter="url(#filter1_f_27_290)">
<path d="M104.696 53.6021H99.11C78.1768 53.6021 61.207 70.5718 61.207 91.505C61.207 112.438 78.1768 129.408 99.11 129.408H104.696C125.629 129.408 142.599 112.438 142.599 91.505C142.599 70.5718 125.629 53.6021 104.696 53.6021Z" fill="#FFEF9A"/>
</g>
<g filter="url(#filter2_d_27_290)">
<path fill-rule="evenodd" clip-rule="evenodd" d="M118.597 138.519C118.597 149.156 109.974 157.779 99.337 157.779V157.781H44.445C36.467 157.781 30 151.314 30 143.336C30 137.394 33.587 132.291 38.714 130.072C38.6819 129.518 38.6659 128.964 38.666 128.409C38.666 112.719 51.385 100 67.075 100C79.819 100 90.603 108.391 94.204 119.95C95.8758 119.49 97.602 119.257 99.336 119.259C109.973 119.259 118.597 127.882 118.597 138.519Z" fill="url(#paint2_linear_27_290)"/>
</g>
</g>
<defs>
<filter id="filter0_f_27_290" x="49.692" y="39.692" width="104.616" height="104.616" filterUnits="userSpaceOnUse" color-interpolation-filters="sRGB">
<feFlood flood-opacity="0" result="BackgroundImageFix"/>
<feBlend mode="normal" in="SourceGraphic" in2="BackgroundImageFix" result="shape"/>
<feGaussianBlur stdDeviation="0.654" result="effect1_foregroundBlur_27_290"/>
</filter>
<filter id="filter1_f_27_290" x="21.309" y="13.7041" width="161.188" height="155.602" filterUnits="userSpaceOnUse" color-interpolation-filters="sRGB">
<feFlood flood-opacity="0" result="BackgroundImageFix"/>
<feBlend mode="normal" in="SourceGraphic" in2="BackgroundImageFix" result="shape"/>
<feGaussianBlur stdDeviation="19.949" result="effect1_foregroundBlur_27_290"/>
</filter>
<filter id="filter2_d_27_290" x="20" y="90" width="108.597" height="77.781" filterUnits="userSpaceOnUse" color-interpolation-filters="sRGB">
<feFlood flood-opacity="0" result="BackgroundImageFix"/>
<feColorMatrix in="SourceAlpha" type="matrix" values="0 0 0 0 0 0 0 0 0 0 0 0 0 0 0 0 0 0 127 0" result="hardAlpha"/>
<feOffset/>
<feGaussianBlur stdDeviation="5"/>
<feComposite in2="hardAlpha" operator="out"/>
<feColorMatrix type="matrix" values="0 0 0 0 0 0 0 0 0 0 0 0 0 0 0 0 0 0 0.1 0"/>
<feBlend mode="normal" in2="BackgroundImageFix" result="effect1_dropShadow_27_290"/>
<feBlend mode="normal" in="SourceGraphic" in2="effect1_dropShadow_27_290" result="shape"/>
</filter>
<linearGradient id="paint0_linear_27_290" x1="104.609" y1="84.002" x2="125.79" y2="140.133" gradientUnits="userSpaceOnUse">
<stop stop-color="#DBD9D9"/>
<stop offset="1" stop-color="#B4B4B4"/>
</linearGradient>
<linearGradient id="paint1_linear_27_290" x1="95.744" y1="113.971" x2="129.103" y2="55.465" gradientUnits="userSpaceOnUse">
<stop stop-color="#FF9900"/>
<stop offset="1" stop-color="#FFEE94"/>
</linearGradient>
<linearGradient id="paint2_linear_27_290" x1="102.324" y1="93.186" x2="77.904" y2="156.636" gradientUnits="userSpaceOnUse">
<stop stop-color="#E4E4E4"/>
<stop offset="1" stop-color="#C6C6C6"/>
</linearGradient>
<clipPath id="clip0_27_290">
<rect width="200" height="200" fill="white"/>
</clipPath>
</defs>
</svg>
