<svg width="242" height="240" viewBox="0 0 242 240" fill="none" xmlns="http://www.w3.org/2000/svg">
    <g opacity=".3" filter="url(#f6pap9xzqa)">
        <rect x="47.672" y="47" width="146.449" height="146.449" rx="73.224" fill="#CCDCE2"/>
    </g>
    <path d="m130.498 104.461-8.975 24.656M111.422 125.594l15.797 18.937M131.469 132.961l-24.299 4.213M123.57 123.484l-8.501 23.15M145.147 142.413l-9.6 26.376M125.438 165.266l15.797 18.936M145.484 172.633l-24.298 4.212M137.586 163.156l-8.501 23.15M111.577 67.358l-9.6 26.376M91.883 90.21l15.797 18.938M111.93 97.578l-24.299 4.213M104.031 88.102l-8.5 23.149M144.522 67.457c-1.469 4.035-7.008 18.639-8.358 22.348M194.257 94.915l-5.218 14.335M49.797 120.734l15.797 18.937M69.844 128.102l-24.299 4.212M61.945 118.625l-8.5 23.149M69.49 97.881l-9.6 26.377M79.726 72.338c-1.769 4.86-2.287 5.905-3.913 10.373M88.39 133.256l-9.6 26.377M68.688 156.109l15.797 18.937M88.734 163.477l-24.298 4.212M80.836 154l-8.501 23.149M173.661 67.661l-11.27 30.964M152.281 95.102l15.798 18.936M172.328 102.469l-24.299 4.212M164.43 92.992l-8.501 23.15M182.975 125.327l-9.6 26.376M163.266 148.18l15.797 18.937M183.312 155.547l-24.298 4.212M175.414 146.07l-8.501 23.15" stroke="#fff" stroke-width="6.102" stroke-linecap="square"/>
    <defs>
        <filter id="f6pap9xzqa" x=".076" y="-.596" width="241.641" height="241.637" filterUnits="userSpaceOnUse" color-interpolation-filters="sRGB">
            <feFlood flood-opacity="0" result="BackgroundImageFix"/>
            <feBlend in="SourceGraphic" in2="BackgroundImageFix" result="shape"/>
            <feGaussianBlur stdDeviation="23.798" result="effect1_foregroundBlur_15344_690662"/>
        </filter>
    </defs>
</svg>
