<svg width="200" height="200" viewBox="0 0 200 200" fill="none" xmlns="http://www.w3.org/2000/svg">
    <path fill-rule="evenodd" clip-rule="evenodd" d="M41.281 83.52c0 .255.002.51.007.763C32.916 87.619 27 95.799 27 105.36c0 12.526 10.154 22.68 22.68 22.68h77.28v-.126c.97.084 1.951.126 2.943.126 18.789 0 34.02-15.231 34.02-34.02S148.692 60 129.903 60c-2.038 0-4.034.18-5.974.523C116.132 47.623 101.974 39 85.801 39c-24.587 0-44.52 19.932-44.52 44.52z" fill="#F3F3F3" fill-opacity=".5"/>
    <path fill-rule="evenodd" clip-rule="evenodd" d="M41.281 83.52c0 .255.002.51.007.763C32.916 87.619 27 95.799 27 105.36c0 12.526 10.154 22.68 22.68 22.68h77.28v-.126c.97.084 1.951.126 2.943.126 18.789 0 34.02-15.231 34.02-34.02S148.692 60 129.903 60c-2.038 0-4.034.18-5.974.523C116.132 47.623 101.974 39 85.801 39c-24.587 0-44.52 19.932-44.52 44.52z" fill="url(#xd2i0tr5wa)"/>
    <path fill-rule="evenodd" clip-rule="evenodd" d="M115.451 145a1 1 0 0 0-1-1H40a1 1 0 0 0-1 1v6a1 1 0 0 0 1 1h74.451a1 1 0 0 0 1-1v-6zm28.767 0a1 1 0 0 0-1-1h-16.929a1 1 0 0 0-1 1v6a1 1 0 0 0 1 1h16.929a1 1 0 0 0 1-1v-6zm-87.96 20.133a1 1 0 0 1 1-1h16.929a1 1 0 0 1 1 1v6a1 1 0 0 1-1 1h-16.93a1 1 0 0 1-1-1v-6zm47.687-1h-17.93a1 1 0 0 0-1 1v6a1 1 0 0 0 1 1h45.691a1 1 0 0 0 1-1v-6a1 1 0 0 0-1-1h-27.761zm57.523 1a1 1 0 0 0-1-1h-16.929a1 1 0 0 0-1 1v6a1 1 0 0 0 1 1h16.929a1 1 0 0 0 1-1v-6zM39 185.266a1 1 0 0 1 1-1h16.93a1 1 0 0 1 1 1v6a1 1 0 0 1-1 1H40a1 1 0 0 1-1-1v-6zm47.695 0a1 1 0 0 0-1-1h-16.93a1 1 0 0 0-1 1v6a1 1 0 0 0 1 1h16.93a1 1 0 0 0 1-1v-6zm9.828 0a1 1 0 0 1 1-1h45.69a1 1 0 0 1 1 1v6a1 1 0 0 1-1 1h-45.69a1 1 0 0 1-1-1v-6z" fill="#E0E0E0"/>
    <defs>
        <linearGradient id="xd2i0tr5wa" x1="56.871" y1="60.742" x2="127.93" y2="170.589" gradientUnits="userSpaceOnUse">
            <stop stop-color="#E0E0E0"/>
            <stop offset=".859" stop-color="#A4A4A4"/>
        </linearGradient>
    </defs>
</svg>
