<svg width="200" height="200" viewBox="0 0 200 200" fill="none" xmlns="http://www.w3.org/2000/svg">
    <path fill-rule="evenodd" clip-rule="evenodd" d="M119.978 141.859h23.779c.117.002.234.002.351.002 14.045 0 25.431-11.385 25.431-25.43S158.153 91 144.108 91c-10.8 0-20.028 6.733-23.715 16.23h-13.079c-9.562 0-17.314 7.752-17.314 17.314 0 9.563 7.752 17.315 17.314 17.315h12.188a18.726 18.726 0 0 0 .476 0z" fill="url(#y1firzdr0a)"/>
    <g opacity=".1" filter="url(#6z0d1s86lb)">
        <path d="M153 93c0 28.167-22.833 51-51 51-28.166 0-51-22.833-51-51 0-28.166 22.834-51 51-51 28.167 0 51 22.834 51 51z" fill="#FFE600"/>
    </g>
    <path d="M142.446 92.903c0 22.391-18.152 40.543-40.543 40.543-22.392 0-40.544-18.152-40.544-40.543 0-22.392 18.152-40.544 40.544-40.544 22.391 0 40.543 18.152 40.543 40.544z" fill="url(#svjgxrkgpc)"/>
    <g opacity=".2" filter="url(#fwsfknv1vd)">
        <rect x="61.207" y="54.602" width="81.392" height="75.806" rx="37.903" fill="#FFEF9A"/>
    </g>
    <g filter="url(#rc2u5k5xye)">
        <path fill-rule="evenodd" clip-rule="evenodd" d="M118.597 139.519c0 10.637-8.623 19.26-19.26 19.26v.002H44.446c-7.978 0-14.445-6.467-14.445-14.445 0-5.942 3.587-11.045 8.714-13.264a28.822 28.822 0 0 1-.048-1.663c0-15.69 12.72-28.409 28.41-28.409 12.743 0 23.527 8.391 27.128 19.95a19.265 19.265 0 0 1 5.132-.691c10.637 0 19.261 8.623 19.261 19.26z" fill="url(#8ko8pisz9f)"/>
    </g>
    <defs>
        <linearGradient id="y1firzdr0a" x1="104.609" y1="85.002" x2="125.79" y2="141.133" gradientUnits="userSpaceOnUse">
            <stop stop-color="#DBD9D9"/>
            <stop offset="1" stop-color="#B4B4B4"/>
        </linearGradient>
        <linearGradient id="svjgxrkgpc" x1="95.744" y1="114.971" x2="129.103" y2="56.465" gradientUnits="userSpaceOnUse">
            <stop stop-color="#F90"/>
            <stop offset="1" stop-color="#FFEE94"/>
        </linearGradient>
        <linearGradient id="8ko8pisz9f" x1="102.324" y1="94.186" x2="77.904" y2="157.636" gradientUnits="userSpaceOnUse">
            <stop stop-color="#E4E4E4"/>
            <stop offset="1" stop-color="#C6C6C6"/>
        </linearGradient>
        <filter id="6z0d1s86lb" x="49.692" y="40.692" width="104.615" height="104.615" filterUnits="userSpaceOnUse" color-interpolation-filters="sRGB">
            <feFlood flood-opacity="0" result="BackgroundImageFix"/>
            <feBlend in="SourceGraphic" in2="BackgroundImageFix" result="shape"/>
            <feGaussianBlur stdDeviation=".654" result="effect1_foregroundBlur_15344_690185"/>
        </filter>
        <filter id="fwsfknv1vd" x="21.309" y="14.704" width="161.186" height="155.6" filterUnits="userSpaceOnUse" color-interpolation-filters="sRGB">
            <feFlood flood-opacity="0" result="BackgroundImageFix"/>
            <feBlend in="SourceGraphic" in2="BackgroundImageFix" result="shape"/>
            <feGaussianBlur stdDeviation="19.949" result="effect1_foregroundBlur_15344_690185"/>
        </filter>
        <filter id="rc2u5k5xye" x="20" y="91" width="108.596" height="77.781" filterUnits="userSpaceOnUse" color-interpolation-filters="sRGB">
            <feFlood flood-opacity="0" result="BackgroundImageFix"/>
            <feColorMatrix in="SourceAlpha" values="0 0 0 0 0 0 0 0 0 0 0 0 0 0 0 0 0 0 127 0" result="hardAlpha"/>
            <feOffset/>
            <feGaussianBlur stdDeviation="5"/>
            <feComposite in2="hardAlpha" operator="out"/>
            <feColorMatrix values="0 0 0 0 0 0 0 0 0 0 0 0 0 0 0 0 0 0 0.1 0"/>
            <feBlend in2="BackgroundImageFix" result="effect1_dropShadow_15344_690185"/>
            <feBlend in="SourceGraphic" in2="effect1_dropShadow_15344_690185" result="shape"/>
        </filter>
    </defs>
</svg>
