<svg width="200" height="203" viewBox="0 0 200 203" fill="none" xmlns="http://www.w3.org/2000/svg">
    <path fill-rule="evenodd" clip-rule="evenodd" d="M132.078 95.697H96.686c-.174.002-.349.004-.523.004-20.904 0-37.85-16.947-37.85-37.85C58.313 36.945 75.258 20 96.162 20c16.075 0 29.809 10.02 35.297 24.156h19.466c14.233 0 25.771 11.538 25.771 25.77 0 14.233-11.538 25.771-25.771 25.771h-18.14a20.889 20.889 0 0 1-.708 0z" fill="url(#t9hmj9nh7a)"/>
    <g filter="url(#hkb20nfn2b)">
        <path fill-rule="evenodd" clip-rule="evenodd" d="M155.865 101.331c0 15.831-12.834 28.665-28.665 28.666V130H45.5c-11.874 0-21.5-9.626-21.5-21.5 0-8.843 5.34-16.44 12.97-19.741a42.934 42.934 0 0 1-.072-2.476C36.898 62.931 55.83 44 79.182 44c18.968 0 35.018 12.49 40.377 29.693a28.698 28.698 0 0 1 7.639-1.029c15.832 0 28.667 12.835 28.667 28.667z" fill="url(#hcqurzg7qc)"/>
    </g>
    <g opacity=".1" filter="url(#wfxidg8w4d)">
        <rect x="36" y="145" width="106" height="30" rx="11.063" fill="#14A2D4"/>
    </g>
    <g filter="url(#8ydvd789ce)" stroke="#fff" stroke-width="5.073" stroke-linecap="square">
        <path d="M46.883 150v20.504M55.758 165.375 38 155.123M55.758 155.125 38 165.377M90 150v20.504M98.875 165.375l-17.757-10.252M98.875 155.125l-17.757 10.252M133.133 150v20.504M142.008 165.375l-17.757-10.252M142.008 155.125l-17.757 10.252"/>
    </g>
    <defs>
        <filter id="hkb20nfn2b" x="14" y="34" width="151.865" height="106" filterUnits="userSpaceOnUse" color-interpolation-filters="sRGB">
            <feFlood flood-opacity="0" result="BackgroundImageFix"/>
            <feColorMatrix in="SourceAlpha" values="0 0 0 0 0 0 0 0 0 0 0 0 0 0 0 0 0 0 127 0" result="hardAlpha"/>
            <feOffset/>
            <feGaussianBlur stdDeviation="5"/>
            <feComposite in2="hardAlpha" operator="out"/>
            <feColorMatrix values="0 0 0 0 0 0 0 0 0 0 0 0 0 0 0 0 0 0 0.1 0"/>
            <feBlend in2="BackgroundImageFix" result="effect1_dropShadow_15344_690911"/>
            <feBlend in="SourceGraphic" in2="effect1_dropShadow_15344_690911" result="shape"/>
        </filter>
        <filter id="wfxidg8w4d" x="8.165" y="117.165" width="161.67" height="85.67" filterUnits="userSpaceOnUse" color-interpolation-filters="sRGB">
            <feFlood flood-opacity="0" result="BackgroundImageFix"/>
            <feBlend in="SourceGraphic" in2="BackgroundImageFix" result="shape"/>
            <feGaussianBlur stdDeviation="13.918" result="effect1_foregroundBlur_15344_690911"/>
        </filter>
        <filter id="8ydvd789ce" x="26.535" y="139.461" width="126.938" height="41.578" filterUnits="userSpaceOnUse" color-interpolation-filters="sRGB">
            <feFlood flood-opacity="0" result="BackgroundImageFix"/>
            <feColorMatrix in="SourceAlpha" values="0 0 0 0 0 0 0 0 0 0 0 0 0 0 0 0 0 0 127 0" result="hardAlpha"/>
            <feOffset/>
            <feGaussianBlur stdDeviation="4"/>
            <feComposite in2="hardAlpha" operator="out"/>
            <feColorMatrix values="0 0 0 0 0 0 0 0 0 0 0 0 0 0 0 0 0 0 0.14 0"/>
            <feBlend in2="BackgroundImageFix" result="effect1_dropShadow_15344_690911"/>
            <feBlend in="SourceGraphic" in2="effect1_dropShadow_15344_690911" result="shape"/>
        </filter>
        <linearGradient id="t9hmj9nh7a" x1="154.953" y1="11.073" x2="123.427" y2="94.617" gradientUnits="userSpaceOnUse">
            <stop stop-color="#DBD9D9"/>
            <stop offset="1" stop-color="#B4B4B4"/>
        </linearGradient>
        <linearGradient id="hcqurzg7qc" x1="131.645" y1="33.858" x2="95.299" y2="128.295" gradientUnits="userSpaceOnUse">
            <stop stop-color="#E4E4E4"/>
            <stop offset="1" stop-color="#C6C6C6"/>
        </linearGradient>
    </defs>
</svg>
