<svg width="200" height="200" viewBox="0 0 200 200" fill="none" xmlns="http://www.w3.org/2000/svg">
<g clip-path="url(#clip0_27_293)">
<path opacity="0.2" d="M191 100C191 150.258 150.258 191 100 191C49.742 191 9 150.258 9 100C9 49.742 49.742 9 100 9C150.258 9 191 49.742 191 100Z" stroke="#FFA91E" stroke-width="2"/>
<path opacity="0.2" d="M178 100C178 143.078 143.078 178 100 178C56.922 178 22 143.078 22 100C22 56.922 56.922 22 100 22C143.078 22 178 56.922 178 100Z" fill="#FFA91E"/>
<path d="M161.859 99.851C161.859 134.097 134.097 161.859 99.851 161.859C65.606 161.859 37.844 134.097 37.844 99.851C37.844 65.606 65.606 37.844 99.851 37.844C134.097 37.844 161.859 65.606 161.859 99.851Z" fill="url(#paint0_linear_27_293)"/>
<g opacity="0.1" filter="url(#filter0_f_27_293)">
<path d="M104.121 41.2729H95.578C63.5626 41.2729 37.609 67.2266 37.609 99.2419C37.609 131.257 63.5626 157.211 95.578 157.211H104.121C136.136 157.211 162.09 131.257 162.09 99.2419C162.09 67.2266 136.136 41.2729 104.121 41.2729Z" fill="#FFEF9A"/>
</g>
</g>
<defs>
<filter id="filter0_f_27_293" x="-23.411" y="-19.7471" width="246.521" height="237.978" filterUnits="userSpaceOnUse" color-interpolation-filters="sRGB">
<feFlood flood-opacity="0" result="BackgroundImageFix"/>
<feBlend mode="normal" in="SourceGraphic" in2="BackgroundImageFix" result="shape"/>
<feGaussianBlur stdDeviation="30.51" result="effect1_foregroundBlur_27_293"/>
</filter>
<linearGradient id="paint0_linear_27_293" x1="90.433" y1="133.602" x2="141.451" y2="44.123" gradientUnits="userSpaceOnUse">
<stop stop-color="#F3A42E"/>
<stop offset="1" stop-color="#FFC640"/>
</linearGradient>
<clipPath id="clip0_27_293">
<rect width="200" height="200" fill="white"/>
</clipPath>
</defs>
</svg>
