<svg width="200" height="200" viewBox="0 0 200 200" fill="none" xmlns="http://www.w3.org/2000/svg">
<g clip-path="url(#clip0_27_293)">
<g opacity="0.5" filter="url(#filter0_f_27_293)">
<path d="M155 133H45C37.268 133 31 139.268 31 147C31 154.732 37.268 161 45 161H155C162.732 161 169 154.732 169 147C169 139.268 162.732 133 155 133Z" fill="#517581"/>
</g>
<path fill-rule="evenodd" clip-rule="evenodd" d="M165.865 90.33C165.865 106.162 153.031 118.996 137.2 118.997V119H55.5C43.626 119 34 109.374 34 97.5C34 88.657 39.339 81.06 46.97 77.759C46.9218 76.9345 46.8978 76.1089 46.898 75.283C46.898 51.931 65.829 33 89.182 33C108.15 33 124.2 45.49 129.559 62.693C132.047 62.008 134.617 61.6619 137.198 61.664C153.03 61.664 165.865 74.498 165.865 90.33Z" fill="url(#paint0_linear_27_293)"/>
<g filter="url(#filter1_d_27_293)">
<path d="M56.875 135.367V155.871M65.75 150.742L47.993 140.49M65.75 140.492L47.993 150.744M99.992 135.367V155.871M108.867 150.742L91.11 140.49M108.867 140.492L91.11 150.744M143.125 135.367V155.871M152 150.742L134.243 140.49M152 140.492L134.243 150.744" stroke="white" stroke-width="5.073" stroke-linecap="square"/>
</g>
</g>
<defs>
<filter id="filter0_f_27_293" x="-13.898" y="88.102" width="227.796" height="117.796" filterUnits="userSpaceOnUse" color-interpolation-filters="sRGB">
<feFlood flood-opacity="0" result="BackgroundImageFix"/>
<feBlend mode="normal" in="SourceGraphic" in2="BackgroundImageFix" result="shape"/>
<feGaussianBlur stdDeviation="22.449" result="effect1_foregroundBlur_27_293"/>
</filter>
<filter id="filter1_d_27_293" x="36.5281" y="124.83" width="126.937" height="41.577" filterUnits="userSpaceOnUse" color-interpolation-filters="sRGB">
<feFlood flood-opacity="0" result="BackgroundImageFix"/>
<feColorMatrix in="SourceAlpha" type="matrix" values="0 0 0 0 0 0 0 0 0 0 0 0 0 0 0 0 0 0 127 0" result="hardAlpha"/>
<feOffset/>
<feGaussianBlur stdDeviation="4"/>
<feComposite in2="hardAlpha" operator="out"/>
<feColorMatrix type="matrix" values="0 0 0 0 0 0 0 0 0 0 0 0 0 0 0 0 0 0 0.14 0"/>
<feBlend mode="normal" in2="BackgroundImageFix" result="effect1_dropShadow_27_293"/>
<feBlend mode="normal" in="SourceGraphic" in2="effect1_dropShadow_27_293" result="shape"/>
</filter>
<linearGradient id="paint0_linear_27_293" x1="96.53" y1="63.338" x2="96.53" y2="118.999" gradientUnits="userSpaceOnUse">
<stop stop-color="#D1D1D1"/>
<stop offset="1" stop-color="#BABABA"/>
</linearGradient>
<clipPath id="clip0_27_293">
<rect width="200" height="200" fill="white"/>
</clipPath>
</defs>
</svg>
