<svg width="200" height="200" viewBox="0 0 200 200" fill="none" xmlns="http://www.w3.org/2000/svg">
<g clip-path="url(#clip0_27_293)">
<path fill-rule="evenodd" clip-rule="evenodd" d="M46.281 80.52C46.281 80.775 46.283 81.03 46.288 81.283C37.916 84.619 32 92.799 32 102.36C32 114.886 42.154 125.04 54.68 125.04H131.96V124.914C132.93 124.998 133.911 125.04 134.903 125.04C153.692 125.04 168.923 109.809 168.923 91.02C168.923 72.231 153.692 57 134.903 57C132.865 57 130.869 57.18 128.929 57.523C121.132 44.623 106.974 36 90.801 36C66.214 36 46.281 55.932 46.281 80.52Z" fill="url(#paint0_linear_27_293)"/>
<g filter="url(#filter0_i_27_293)">
<path d="M114.475 104H89.75L79 133.354H98.35L89.392 170L122 121.923H107.667L114.475 104Z" fill="url(#paint1_linear_27_293)"/>
</g>
</g>
<defs>
<filter id="filter0_i_27_293" x="78.574" y="104" width="43.426" height="66" filterUnits="userSpaceOnUse" color-interpolation-filters="sRGB">
<feFlood flood-opacity="0" result="BackgroundImageFix"/>
<feBlend mode="normal" in="SourceGraphic" in2="BackgroundImageFix" result="shape"/>
<feColorMatrix in="SourceAlpha" type="matrix" values="0 0 0 0 0 0 0 0 0 0 0 0 0 0 0 0 0 0 127 0" result="hardAlpha"/>
<feOffset dx="-0.426"/>
<feGaussianBlur stdDeviation="0.958"/>
<feComposite in2="hardAlpha" operator="arithmetic" k2="-1" k3="1"/>
<feColorMatrix type="matrix" values="0 0 0 0 1 0 0 0 0 1 0 0 0 0 1 0 0 0 0.5 0"/>
<feBlend mode="normal" in2="shape" result="effect1_innerShadow_27_293"/>
</filter>
<linearGradient id="paint0_linear_27_293" x1="96.928" y1="67.411" x2="96.928" y2="125.039" gradientUnits="userSpaceOnUse">
<stop stop-color="#D1D1D1"/>
<stop offset="1" stop-color="#BABABA"/>
</linearGradient>
<linearGradient id="paint1_linear_27_293" x1="95.185" y1="163.643" x2="137.981" y2="105.467" gradientUnits="userSpaceOnUse">
<stop stop-color="#EFA535"/>
<stop offset="1" stop-color="#FFEE94"/>
</linearGradient>
<clipPath id="clip0_27_293">
<rect width="200" height="200" fill="white"/>
</clipPath>
</defs>
</svg>
