<svg width="200" height="200" viewBox="0 0 200 200" fill="none" xmlns="http://www.w3.org/2000/svg">
<g clip-path="url(#clip0_27_293)">
<path fill-rule="evenodd" clip-rule="evenodd" d="M46.281 80.52C46.281 80.775 46.283 81.03 46.288 81.283C37.916 84.619 32 92.799 32 102.36C32 114.886 42.154 125.04 54.68 125.04H131.96V124.914C132.93 124.998 133.911 125.04 134.903 125.04C153.692 125.04 168.923 109.809 168.923 91.02C168.923 72.231 153.692 57 134.903 57C132.865 57 130.869 57.18 128.929 57.523C121.132 44.623 106.974 36 90.801 36C66.214 36 46.281 55.932 46.281 80.52Z" fill="url(#paint0_linear_27_293)"/>
<g filter="url(#filter0_di_27_293)">
<path d="M62.6288 145.707L54.0431 154.293C53.6526 154.683 53.6526 155.317 54.0431 155.707L62.6288 164.293C63.0193 164.683 63.6525 164.683 64.043 164.293L72.6287 155.707C73.0192 155.317 73.0192 154.683 72.6287 154.293L64.043 145.707C63.6525 145.317 63.0193 145.317 62.6288 145.707Z" fill="url(#paint1_linear_27_293)"/>
<path d="M62.6288 145.707L54.0431 154.293C53.6526 154.683 53.6526 155.317 54.0431 155.707L62.6288 164.293C63.0193 164.683 63.6525 164.683 64.043 164.293L72.6287 155.707C73.0192 155.317 73.0192 154.683 72.6287 154.293L64.043 145.707C63.6525 145.317 63.0193 145.317 62.6288 145.707Z" fill="url(#paint2_linear_27_293)" fill-opacity="0.9"/>
<path d="M62.6288 145.707L54.0431 154.293C53.6526 154.683 53.6526 155.317 54.0431 155.707L62.6288 164.293C63.0193 164.683 63.6525 164.683 64.043 164.293L72.6287 155.707C73.0192 155.317 73.0192 154.683 72.6287 154.293L64.043 145.707C63.6525 145.317 63.0193 145.317 62.6288 145.707Z" fill="url(#paint3_linear_27_293)"/>
</g>
<g filter="url(#filter1_di_27_293)">
<path d="M99.2928 145.707L90.7071 154.293C90.3166 154.683 90.3166 155.317 90.7071 155.707L99.2928 164.293C99.6833 164.683 100.316 164.683 100.707 164.293L109.293 155.707C109.683 155.317 109.683 154.683 109.293 154.293L100.707 145.707C100.316 145.317 99.6833 145.317 99.2928 145.707Z" fill="url(#paint4_linear_27_293)"/>
<path d="M99.2928 145.707L90.7071 154.293C90.3166 154.683 90.3166 155.317 90.7071 155.707L99.2928 164.293C99.6833 164.683 100.316 164.683 100.707 164.293L109.293 155.707C109.683 155.317 109.683 154.683 109.293 154.293L100.707 145.707C100.316 145.317 99.6833 145.317 99.2928 145.707Z" fill="url(#paint5_linear_27_293)" fill-opacity="0.9"/>
<path d="M99.2928 145.707L90.7071 154.293C90.3166 154.683 90.3166 155.317 90.7071 155.707L99.2928 164.293C99.6833 164.683 100.316 164.683 100.707 164.293L109.293 155.707C109.683 155.317 109.683 154.683 109.293 154.293L100.707 145.707C100.316 145.317 99.6833 145.317 99.2928 145.707Z" fill="url(#paint6_linear_27_293)"/>
</g>
<g filter="url(#filter2_di_27_293)">
<path d="M135.965 145.707L127.379 154.293C126.989 154.683 126.989 155.317 127.379 155.707L135.965 164.293C136.355 164.683 136.988 164.683 137.379 164.293L145.965 155.707C146.355 155.317 146.355 154.683 145.965 154.293L137.379 145.707C136.988 145.317 136.355 145.317 135.965 145.707Z" fill="url(#paint7_linear_27_293)"/>
<path d="M135.965 145.707L127.379 154.293C126.989 154.683 126.989 155.317 127.379 155.707L135.965 164.293C136.355 164.683 136.988 164.683 137.379 164.293L145.965 155.707C146.355 155.317 146.355 154.683 145.965 154.293L137.379 145.707C136.988 145.317 136.355 145.317 135.965 145.707Z" fill="url(#paint8_linear_27_293)" fill-opacity="0.9"/>
<path d="M135.965 145.707L127.379 154.293C126.989 154.683 126.989 155.317 127.379 155.707L135.965 164.293C136.355 164.683 136.988 164.683 137.379 164.293L145.965 155.707C146.355 155.317 146.355 154.683 145.965 154.293L137.379 145.707C136.988 145.317 136.355 145.317 135.965 145.707Z" fill="url(#paint9_linear_27_293)"/>
</g>
</g>
<defs>
<filter id="filter0_di_27_293" x="51.7502" y="143.414" width="23.1714" height="25.6154" filterUnits="userSpaceOnUse" color-interpolation-filters="sRGB">
<feFlood flood-opacity="0" result="BackgroundImageFix"/>
<feColorMatrix in="SourceAlpha" type="matrix" values="0 0 0 0 0 0 0 0 0 0 0 0 0 0 0 0 0 0 127 0" result="hardAlpha"/>
<feOffset/>
<feGaussianBlur stdDeviation="1"/>
<feComposite in2="hardAlpha" operator="out"/>
<feColorMatrix type="matrix" values="0 0 0 0 0.490544 0 0 0 0 0.490544 0 0 0 0 0.490544 0 0 0 0.4 0"/>
<feBlend mode="normal" in2="BackgroundImageFix" result="effect1_dropShadow_27_293"/>
<feBlend mode="normal" in="SourceGraphic" in2="effect1_dropShadow_27_293" result="shape"/>
<feColorMatrix in="SourceAlpha" type="matrix" values="0 0 0 0 0 0 0 0 0 0 0 0 0 0 0 0 0 0 127 0" result="hardAlpha"/>
<feOffset dy="4.444"/>
<feGaussianBlur stdDeviation="2.222"/>
<feComposite in2="hardAlpha" operator="arithmetic" k2="-1" k3="1"/>
<feColorMatrix type="matrix" values="0 0 0 0 1 0 0 0 0 1 0 0 0 0 1 0 0 0 0.25 0"/>
<feBlend mode="normal" in2="shape" result="effect2_innerShadow_27_293"/>
</filter>
<filter id="filter1_di_27_293" x="88.4142" y="143.414" width="23.1714" height="25.6154" filterUnits="userSpaceOnUse" color-interpolation-filters="sRGB">
<feFlood flood-opacity="0" result="BackgroundImageFix"/>
<feColorMatrix in="SourceAlpha" type="matrix" values="0 0 0 0 0 0 0 0 0 0 0 0 0 0 0 0 0 0 127 0" result="hardAlpha"/>
<feOffset/>
<feGaussianBlur stdDeviation="1"/>
<feComposite in2="hardAlpha" operator="out"/>
<feColorMatrix type="matrix" values="0 0 0 0 0.490544 0 0 0 0 0.490544 0 0 0 0 0.490544 0 0 0 0.4 0"/>
<feBlend mode="normal" in2="BackgroundImageFix" result="effect1_dropShadow_27_293"/>
<feBlend mode="normal" in="SourceGraphic" in2="effect1_dropShadow_27_293" result="shape"/>
<feColorMatrix in="SourceAlpha" type="matrix" values="0 0 0 0 0 0 0 0 0 0 0 0 0 0 0 0 0 0 127 0" result="hardAlpha"/>
<feOffset dy="4.444"/>
<feGaussianBlur stdDeviation="2.222"/>
<feComposite in2="hardAlpha" operator="arithmetic" k2="-1" k3="1"/>
<feColorMatrix type="matrix" values="0 0 0 0 1 0 0 0 0 1 0 0 0 0 1 0 0 0 0.25 0"/>
<feBlend mode="normal" in2="shape" result="effect2_innerShadow_27_293"/>
</filter>
<filter id="filter2_di_27_293" x="125.086" y="143.414" width="23.1714" height="25.6154" filterUnits="userSpaceOnUse" color-interpolation-filters="sRGB">
<feFlood flood-opacity="0" result="BackgroundImageFix"/>
<feColorMatrix in="SourceAlpha" type="matrix" values="0 0 0 0 0 0 0 0 0 0 0 0 0 0 0 0 0 0 127 0" result="hardAlpha"/>
<feOffset/>
<feGaussianBlur stdDeviation="1"/>
<feComposite in2="hardAlpha" operator="out"/>
<feColorMatrix type="matrix" values="0 0 0 0 0.490544 0 0 0 0 0.490544 0 0 0 0 0.490544 0 0 0 0.4 0"/>
<feBlend mode="normal" in2="BackgroundImageFix" result="effect1_dropShadow_27_293"/>
<feBlend mode="normal" in="SourceGraphic" in2="effect1_dropShadow_27_293" result="shape"/>
<feColorMatrix in="SourceAlpha" type="matrix" values="0 0 0 0 0 0 0 0 0 0 0 0 0 0 0 0 0 0 127 0" result="hardAlpha"/>
<feOffset dy="4.444"/>
<feGaussianBlur stdDeviation="2.222"/>
<feComposite in2="hardAlpha" operator="arithmetic" k2="-1" k3="1"/>
<feColorMatrix type="matrix" values="0 0 0 0 1 0 0 0 0 1 0 0 0 0 1 0 0 0 0.25 0"/>
<feBlend mode="normal" in2="shape" result="effect2_innerShadow_27_293"/>
</filter>
<linearGradient id="paint0_linear_27_293" x1="96.928" y1="67.411" x2="96.928" y2="125.039" gradientUnits="userSpaceOnUse">
<stop stop-color="#D1D1D1"/>
<stop offset="1" stop-color="#BABABA"/>
</linearGradient>
<linearGradient id="paint1_linear_27_293" x1="57.8099" y1="155.409" x2="74.7161" y2="154.854" gradientUnits="userSpaceOnUse">
<stop stop-color="#E0E0E0"/>
<stop offset="0.859" stop-color="#A4A4A4"/>
</linearGradient>
<linearGradient id="paint2_linear_27_293" x1="58.3359" y1="150" x2="68.3359" y2="160" gradientUnits="userSpaceOnUse">
<stop stop-color="white"/>
<stop offset="1" stop-color="#D7D7D7"/>
</linearGradient>
<linearGradient id="paint3_linear_27_293" x1="58.3359" y1="150" x2="68.3359" y2="160" gradientUnits="userSpaceOnUse">
<stop stop-color="#AFB5B7"/>
<stop offset="1" stop-color="#C1C1C1"/>
</linearGradient>
<linearGradient id="paint4_linear_27_293" x1="94.4739" y1="155.409" x2="111.38" y2="154.854" gradientUnits="userSpaceOnUse">
<stop stop-color="#E0E0E0"/>
<stop offset="0.859" stop-color="#A4A4A4"/>
</linearGradient>
<linearGradient id="paint5_linear_27_293" x1="95" y1="150" x2="105" y2="160" gradientUnits="userSpaceOnUse">
<stop stop-color="white"/>
<stop offset="1" stop-color="#D7D7D7"/>
</linearGradient>
<linearGradient id="paint6_linear_27_293" x1="95" y1="150" x2="105" y2="160" gradientUnits="userSpaceOnUse">
<stop stop-color="#AFB5B7"/>
<stop offset="1" stop-color="#C1C1C1"/>
</linearGradient>
<linearGradient id="paint7_linear_27_293" x1="131.146" y1="155.409" x2="148.052" y2="154.854" gradientUnits="userSpaceOnUse">
<stop stop-color="#E0E0E0"/>
<stop offset="0.859" stop-color="#A4A4A4"/>
</linearGradient>
<linearGradient id="paint8_linear_27_293" x1="131.672" y1="150" x2="141.672" y2="160" gradientUnits="userSpaceOnUse">
<stop stop-color="white"/>
<stop offset="1" stop-color="#D7D7D7"/>
</linearGradient>
<linearGradient id="paint9_linear_27_293" x1="131.672" y1="150" x2="141.672" y2="160" gradientUnits="userSpaceOnUse">
<stop stop-color="#AFB5B7"/>
<stop offset="1" stop-color="#C1C1C1"/>
</linearGradient>
<clipPath id="clip0_27_293">
<rect width="200" height="200" fill="white"/>
</clipPath>
</defs>
</svg>
