<svg width="200" height="200" viewBox="0 0 200 200" fill="none" xmlns="http://www.w3.org/2000/svg">
<g clip-path="url(#clip0_27_293)">
<g opacity="0.1" filter="url(#filter0_f_27_293)">
<path d="M100.225 26H100.224C59.7835 26 27 58.7835 27 99.224V99.225C27 139.665 59.7835 172.449 100.224 172.449H100.225C140.666 172.449 173.449 139.665 173.449 99.225V99.224C173.449 58.7835 140.666 26 100.225 26Z" fill="url(#paint0_linear_27_293)"/>
</g>
<path d="M71.545 91.292C73.9038 91.292 75.816 89.3798 75.816 87.021C75.816 84.6622 73.9038 82.75 71.545 82.75C69.1862 82.75 67.274 84.6622 67.274 87.021C67.274 89.3798 69.1862 91.292 71.545 91.292Z" fill="#EFB92F"/>
<path d="M31.271 66.886C33.6298 66.886 35.542 64.9738 35.542 62.615C35.542 60.2562 33.6298 58.344 31.271 58.344C28.9122 58.344 27 60.2562 27 62.615C27 64.9738 28.9122 66.886 31.271 66.886Z" fill="#EFB92F"/>
<path d="M63.609 111.43H119.138M30.656 111.43H86.185M118.538 135.836H78.875M60.556 135.836H30.656M97.477 135.836H136.835C144.923 135.836 151.479 142.393 151.479 150.481V151.244C151.479 159.079 145.128 165.431 137.292 165.431H136.224C128.979 165.431 123.105 159.557 123.105 152.311M100.828 62.6099H140.409C148.497 62.6099 155.136 56.0529 155.136 47.9649V47.5869C155.136 39.7069 148.748 33.3199 140.869 33.3199H139.585C132.415 33.3199 126.601 39.1329 126.601 46.3039M119.141 111.43H158.721C166.809 111.43 173.449 104.873 173.449 96.785V96.4069C173.449 88.5279 167.061 82.1399 159.181 82.1399H157.898C150.727 82.1399 144.914 87.9529 144.914 95.1239M47.75 62.6099H117.923M30.656 87.0229H55.064M88.016 87.0229H123.407" stroke="#EDB117" stroke-width="8" stroke-linecap="square"/>
</g>
<defs>
<filter id="filter0_f_27_293" x="-20.596" y="-21.596" width="241.641" height="241.641" filterUnits="userSpaceOnUse" color-interpolation-filters="sRGB">
<feFlood flood-opacity="0" result="BackgroundImageFix"/>
<feBlend mode="normal" in="SourceGraphic" in2="BackgroundImageFix" result="shape"/>
<feGaussianBlur stdDeviation="23.798" result="effect1_foregroundBlur_27_293"/>
</filter>
<linearGradient id="paint0_linear_27_293" x1="39.351" y1="-436.524" x2="210.302" y2="-433.931" gradientUnits="userSpaceOnUse">
<stop stop-color="#F5E0C0"/>
<stop offset="1" stop-color="#DDAA5F"/>
</linearGradient>
<clipPath id="clip0_27_293">
<rect width="200" height="200" fill="white"/>
</clipPath>
</defs>
</svg>
