<svg width="200" height="200" viewBox="0 0 200 200" fill="none" xmlns="http://www.w3.org/2000/svg">
<g clip-path="url(#clip0_27_293)">
<g opacity="0.3" filter="url(#filter0_f_27_293)">
<path d="M146 139H54C47.9249 139 43 143.925 43 150C43 156.075 47.9249 161 54 161H146C152.075 161 157 156.075 157 150C157 143.925 152.075 139 146 139Z" fill="#517581"/>
</g>
<path fill-rule="evenodd" clip-rule="evenodd" d="M165.865 95.33C165.865 111.162 153.031 123.996 137.2 123.997V124H55.5C43.626 124 34 114.374 34 102.5C34 93.657 39.339 86.06 46.97 82.759C46.9218 81.9345 46.8978 81.1089 46.898 80.283C46.898 56.931 65.829 38 89.182 38C108.15 38 124.2 50.49 129.559 67.693C132.047 67.008 134.617 66.6619 137.198 66.664C153.03 66.664 165.865 79.498 165.865 95.33Z" fill="url(#paint0_linear_27_293)"/>
<g filter="url(#filter1_d_27_293)">
<path d="M104.289 161.25V138.003M94.219 143.812L114.352 155.436M94.219 155.438L114.352 143.814" stroke="white" stroke-width="6" stroke-linecap="square"/>
</g>
<g filter="url(#filter2_d_27_293)">
<path d="M142.422 161.25V138.003M132.352 143.812L152.484 155.436M132.352 155.438L152.484 143.814" stroke="white" stroke-width="6" stroke-linecap="square"/>
</g>
<path d="M52.609 142.031L47.002 157.436M76.219 142.031L70.612 157.436" stroke="#14A2D4" stroke-width="8" stroke-linecap="square"/>
</g>
<defs>
<filter id="filter0_f_27_293" x="15.164" y="111.164" width="169.672" height="77.672" filterUnits="userSpaceOnUse" color-interpolation-filters="sRGB">
<feFlood flood-opacity="0" result="BackgroundImageFix"/>
<feBlend mode="normal" in="SourceGraphic" in2="BackgroundImageFix" result="shape"/>
<feGaussianBlur stdDeviation="13.918" result="effect1_foregroundBlur_27_293"/>
</filter>
<filter id="filter1_d_27_293" x="86.1209" y="131.003" width="36.3292" height="37.2469" filterUnits="userSpaceOnUse" color-interpolation-filters="sRGB">
<feFlood flood-opacity="0" result="BackgroundImageFix"/>
<feColorMatrix in="SourceAlpha" type="matrix" values="0 0 0 0 0 0 0 0 0 0 0 0 0 0 0 0 0 0 127 0" result="hardAlpha"/>
<feOffset/>
<feGaussianBlur stdDeviation="2"/>
<feComposite in2="hardAlpha" operator="out"/>
<feColorMatrix type="matrix" values="0 0 0 0 0 0 0 0 0 0 0 0 0 0 0 0 0 0 0.12 0"/>
<feBlend mode="normal" in2="BackgroundImageFix" result="effect1_dropShadow_27_293"/>
<feBlend mode="normal" in="SourceGraphic" in2="effect1_dropShadow_27_293" result="shape"/>
</filter>
<filter id="filter2_d_27_293" x="124.254" y="131.003" width="36.3282" height="37.2469" filterUnits="userSpaceOnUse" color-interpolation-filters="sRGB">
<feFlood flood-opacity="0" result="BackgroundImageFix"/>
<feColorMatrix in="SourceAlpha" type="matrix" values="0 0 0 0 0 0 0 0 0 0 0 0 0 0 0 0 0 0 127 0" result="hardAlpha"/>
<feOffset/>
<feGaussianBlur stdDeviation="2"/>
<feComposite in2="hardAlpha" operator="out"/>
<feColorMatrix type="matrix" values="0 0 0 0 0 0 0 0 0 0 0 0 0 0 0 0 0 0 0.12 0"/>
<feBlend mode="normal" in2="BackgroundImageFix" result="effect1_dropShadow_27_293"/>
<feBlend mode="normal" in="SourceGraphic" in2="effect1_dropShadow_27_293" result="shape"/>
</filter>
<linearGradient id="paint0_linear_27_293" x1="96.53" y1="68.338" x2="96.53" y2="123.999" gradientUnits="userSpaceOnUse">
<stop stop-color="#D1D1D1"/>
<stop offset="1" stop-color="#BABABA"/>
</linearGradient>
<clipPath id="clip0_27_293">
<rect width="200" height="200" fill="white"/>
</clipPath>
</defs>
</svg>
