<svg width="200" height="200" viewBox="0 0 200 200" fill="none" xmlns="http://www.w3.org/2000/svg">
<g clip-path="url(#clip0_27_293)">
<g opacity="0.2" filter="url(#filter0_f_27_293)">
<path d="M171 76C171 104.167 148.167 127 120 127C91.833 127 69 104.167 69 76C69 47.834 91.833 25 120 25C148.167 25 171 47.834 171 76Z" fill="#FFA91E"/>
</g>
<path d="M160.446 75.903C160.446 98.294 142.294 116.446 119.903 116.446C97.511 116.446 79.359 98.294 79.359 75.903C79.359 53.511 97.511 35.359 119.903 35.359C142.294 35.359 160.446 53.511 160.446 75.903Z" fill="url(#paint0_linear_27_293)"/>
<g opacity="0.1" filter="url(#filter1_f_27_293)">
<path d="M122.692 37.6021H117.106C96.1728 37.6021 79.203 54.5718 79.203 75.505C79.203 96.4383 96.1728 113.408 117.106 113.408H122.692C143.625 113.408 160.595 96.4383 160.595 75.505C160.595 54.5718 143.625 37.6021 122.692 37.6021Z" fill="#FFEF9A"/>
</g>
<g opacity="0.1" filter="url(#filter2_f_27_293)">
<path d="M121.798 136.953H48.202C44.7767 136.953 42 139.73 42 143.155C42 146.58 44.7767 149.357 48.202 149.357H121.798C125.223 149.357 128 146.58 128 143.155C128 139.73 125.223 136.953 121.798 136.953Z" fill="#14A2D4"/>
</g>
<g opacity="0.1" filter="url(#filter3_f_27_293)">
<path d="M121.798 136.953H48.202C44.7767 136.953 42 139.73 42 143.155C42 146.58 44.7767 149.357 48.202 149.357H121.798C125.223 149.357 128 146.58 128 143.155C128 139.73 125.223 136.953 121.798 136.953Z" fill="#14A2D4"/>
</g>
<path d="M46.208 173.735L54.558 150.794M67.833 173.735L76.183 150.794M111.091 173.735L119.441 150.794M89.474 173.735L97.824 150.794" stroke="#14A2D4" stroke-width="5.996" stroke-linecap="square"/>
<g filter="url(#filter4_d_27_293)">
<path fill-rule="evenodd" clip-rule="evenodd" d="M47.75 136.999V137H118.999V136.999H119C132.806 136.999 143.999 125.806 143.999 112C143.999 98.193 132.806 87 119 87C116.69 87 114.453 87.313 112.33 87.9C107.659 72.894 93.66 62 77.117 62C56.751 62 40.242 78.51 40.242 98.874C40.242 99.6 40.263 100.321 40.305 101.036C33.653 103.917 29 110.54 29 118.25C29 128.605 37.395 136.999 47.75 136.999Z" fill="url(#paint1_linear_27_293)"/>
</g>
</g>
<defs>
<filter id="filter0_f_27_293" x="67.692" y="23.692" width="104.616" height="104.616" filterUnits="userSpaceOnUse" color-interpolation-filters="sRGB">
<feFlood flood-opacity="0" result="BackgroundImageFix"/>
<feBlend mode="normal" in="SourceGraphic" in2="BackgroundImageFix" result="shape"/>
<feGaussianBlur stdDeviation="0.654" result="effect1_foregroundBlur_27_293"/>
</filter>
<filter id="filter1_f_27_293" x="39.305" y="-2.29595" width="161.188" height="155.602" filterUnits="userSpaceOnUse" color-interpolation-filters="sRGB">
<feFlood flood-opacity="0" result="BackgroundImageFix"/>
<feBlend mode="normal" in="SourceGraphic" in2="BackgroundImageFix" result="shape"/>
<feGaussianBlur stdDeviation="19.949" result="effect1_foregroundBlur_27_293"/>
</filter>
<filter id="filter2_f_27_293" x="14.164" y="109.117" width="141.672" height="68.0759" filterUnits="userSpaceOnUse" color-interpolation-filters="sRGB">
<feFlood flood-opacity="0" result="BackgroundImageFix"/>
<feBlend mode="normal" in="SourceGraphic" in2="BackgroundImageFix" result="shape"/>
<feGaussianBlur stdDeviation="13.918" result="effect1_foregroundBlur_27_293"/>
</filter>
<filter id="filter3_f_27_293" x="14.164" y="109.117" width="141.672" height="68.0759" filterUnits="userSpaceOnUse" color-interpolation-filters="sRGB">
<feFlood flood-opacity="0" result="BackgroundImageFix"/>
<feBlend mode="normal" in="SourceGraphic" in2="BackgroundImageFix" result="shape"/>
<feGaussianBlur stdDeviation="13.918" result="effect1_foregroundBlur_27_293"/>
</filter>
<filter id="filter4_d_27_293" x="19" y="52" width="134.999" height="95" filterUnits="userSpaceOnUse" color-interpolation-filters="sRGB">
<feFlood flood-opacity="0" result="BackgroundImageFix"/>
<feColorMatrix in="SourceAlpha" type="matrix" values="0 0 0 0 0 0 0 0 0 0 0 0 0 0 0 0 0 0 127 0" result="hardAlpha"/>
<feOffset/>
<feGaussianBlur stdDeviation="5"/>
<feComposite in2="hardAlpha" operator="out"/>
<feColorMatrix type="matrix" values="0 0 0 0 0 0 0 0 0 0 0 0 0 0 0 0 0 0 0.1 0"/>
<feBlend mode="normal" in2="BackgroundImageFix" result="effect1_dropShadow_27_293"/>
<feBlend mode="normal" in="SourceGraphic" in2="effect1_dropShadow_27_293" result="shape"/>
</filter>
<linearGradient id="paint0_linear_27_293" x1="113.744" y1="97.971" x2="147.103" y2="39.465" gradientUnits="userSpaceOnUse">
<stop stop-color="#F3A42E"/>
<stop offset="1" stop-color="#FFC640"/>
</linearGradient>
<linearGradient id="paint1_linear_27_293" x1="83.532" y1="88.458" x2="83.532" y2="136.999" gradientUnits="userSpaceOnUse">
<stop stop-color="#D1D1D1"/>
<stop offset="1" stop-color="#BABABA"/>
</linearGradient>
<clipPath id="clip0_27_293">
<rect width="200" height="200" fill="white"/>
</clipPath>
</defs>
</svg>
